<?xml version="1.0" standalone="no"?>
<!DOCTYPE svg PUBLIC "-//W3C//DTD SVG 20010904//EN"
 "http://www.w3.org/TR/2001/REC-SVG-20010904/DTD/svg10.dtd">
<svg version="1.0" xmlns="http://www.w3.org/2000/svg"
 width="972.000000pt" height="944.000000pt" viewBox="0 0 972.000000 944.000000"
 preserveAspectRatio="xMidYMid meet">

<g transform="translate(0.000000,944.000000) scale(0.100000,-0.100000)"
fill="#000000" stroke="none">
<path d="M0 4720 l0 -4720 3683 1 c2025 0 3675 3 3667 6 -26 10 -68 54 -81 87
-7 17 -16 33 -19 36 -3 3 -17 43 -31 89 -28 96 -56 125 -46 47 6 -43 31 -108
76 -197 l18 -36 -59 27 c-70 31 -112 88 -130 175 -10 49 -30 76 -42 56 -3 -4
2 -36 9 -72 27 -117 27 -117 13 -94 -6 11 -12 29 -13 40 -1 11 -10 57 -20 103
-16 74 -20 83 -39 80 -26 -4 -24 -24 11 -126 13 -41 22 -76 19 -79 -11 -11
-35 19 -52 65 -10 26 -22 50 -27 53 -6 4 -8 18 -5 32 3 16 1 25 -6 24 -7 -1
-11 32 -11 105 0 101 7 136 23 111 5 -8 16 -3 36 13 15 14 26 28 22 31 -3 3
-1 12 5 20 9 10 7 13 -7 13 -16 0 -17 2 -4 10 10 6 16 6 18 0 7 -19 24 -10 19
10 -4 17 -2 18 14 10 15 -8 17 -7 13 4 -9 25 -31 26 -62 2 -24 -17 -28 -25
-21 -39 8 -13 6 -15 -6 -11 -17 7 -20 30 -5 39 6 4 8 11 5 16 -4 5 0 9 8 9 8
0 22 10 33 22 l19 22 -28 -18 c-28 -17 -28 -17 -17 4 6 12 13 33 15 48 1 15 3
31 4 36 0 4 7 6 15 3 7 -3 25 5 38 18 14 13 29 21 32 18 3 -4 5 -27 4 -52 -1
-37 -2 -39 -5 -13 -2 17 -8 32 -14 32 -13 0 -49 -32 -61 -53 -8 -16 -7 -18 12
-12 15 5 20 4 16 -4 -4 -6 -3 -11 3 -11 5 0 15 -17 22 -37 6 -21 17 -42 23
-46 8 -6 7 -10 -1 -14 -7 -2 -13 -9 -13 -14 0 -5 8 -4 18 2 14 9 28 6 68 -14
68 -34 212 -71 349 -88 6 -1 -3 -4 -20 -8 -40 -8 -102 -92 -111 -149 -8 -54 0
-158 14 -175 6 -7 11 -16 12 -22 3 -17 59 -112 75 -125 21 -17 49 -5 40 18 -8
19 -18 89 -39 282 -15 131 -12 150 25 150 17 0 19 -8 19 -62 0 -35 9 -130 20
-213 11 -82 20 -158 20 -167 0 -11 8 -18 19 -18 16 0 18 5 11 33 -4 17 -10 39
-13 47 -5 12 -37 362 -37 399 0 5 56 -3 125 -17 94 -19 123 -28 115 -37 -6 -8
-6 -49 1 -121 23 -251 31 -304 42 -304 5 0 7 15 4 35 -3 21 -2 33 4 30 5 -4 9
-19 9 -36 0 -23 4 -29 21 -29 22 0 22 -8 3 135 -3 28 -8 79 -10 115 -5 104
-13 140 -30 133 -10 -4 -14 3 -14 21 l0 26 40 -20 c58 -29 116 -95 156 -176
l35 -72 -16 -58 c-10 -33 -21 -63 -26 -69 -15 -15 -10 -35 9 -35 21 0 44 65
35 101 -10 39 8 14 31 -43 l21 -53 813 -3 812 -2 0 618 c0 340 -2 621 -5 624
-3 2 -58 -2 -122 -10 -65 -8 -176 -15 -248 -14 -111 0 -142 4 -213 27 -89 28
-103 41 -122 113 -25 96 -89 203 -168 279 -56 54 -80 72 -94 67 -10 -3 -40 -1
-66 5 -26 6 -77 18 -113 26 -111 25 -253 14 -364 -29 -22 -8 -50 -15 -63 -16
-12 0 -31 -9 -42 -20 -11 -11 -24 -20 -28 -20 -5 0 -17 -9 -27 -20 -33 -37
-75 -16 -75 39 0 15 14 24 73 41 39 13 77 26 82 30 11 9 238 65 305 76 60 9
112 14 190 18 104 5 194 18 202 30 5 7 8 7 8 0 0 -11 118 -3 138 10 6 4 11 -1
11 -11 -1 -32 6 -49 29 -73 12 -13 22 -34 22 -46 0 -29 28 -33 115 -17 111 21
129 22 147 6 17 -15 78 -19 254 -15 81 2 94 5 117 26 29 27 49 88 53 159 2 48
-3 56 -24 35 -9 -9 -12 -9 -12 0 0 6 9 16 20 22 20 11 20 21 20 3604 l0 3594
-95 -3 c-60 -2 -97 0 -101 7 -5 7 2 9 20 4 16 -4 26 -2 26 4 0 6 4 8 10 5 5
-3 29 0 52 6 57 17 56 16 73 18 8 0 15 8 15 16 0 12 -28 15 -186 14 -106 0
-191 5 -198 10 -6 5 -90 12 -186 15 -96 3 -195 7 -220 10 -113 14 -129 14
-134 0 -3 -7 -12 -11 -21 -8 -8 3 -15 1 -15 -4 0 -6 -9 -14 -20 -17 -11 -3
-20 -12 -20 -20 0 -20 -34 -24 -165 -20 -98 3 -513 6 -590 3 -11 0 -45 -6 -75
-13 -30 -7 -73 -11 -95 -9 -22 2 -60 -1 -85 -5 -25 -5 -91 -15 -148 -21 -93
-11 -125 -21 -105 -33 5 -3 40 -8 78 -11 181 -17 286 -33 298 -45 6 -6 22 -11
36 -11 15 0 33 -5 41 -10 13 -8 13 -11 0 -23 -8 -8 -37 -22 -65 -33 -44 -17
-78 -19 -266 -19 -157 0 -220 -3 -231 -12 -8 -7 -19 -9 -23 -5 -5 4 -5 2 -2
-4 4 -7 19 -15 34 -19 14 -3 38 -15 51 -26 14 -11 28 -16 31 -12 9 13 39 15
46 3 3 -5 13 -10 21 -10 9 0 12 5 8 12 -5 7 -3 8 6 3 19 -11 60 -15 60 -5 0 5
-6 11 -12 13 -13 5 37 11 57 7 6 -1 39 -3 75 -5 80 -5 138 -12 150 -20 18 -11
-2 -33 -28 -30 -15 2 -47 -4 -70 -12 -24 -8 -46 -12 -50 -9 -3 3 2 6 11 6 10
0 14 5 11 15 -3 8 -16 14 -29 13 -13 -1 -22 -5 -20 -9 3 -3 -5 -16 -16 -27
-22 -24 -35 -29 -22 -9 4 6 -5 4 -20 -5 -18 -13 -46 -18 -91 -18 -36 0 -67 -4
-70 -9 -3 -4 -17 -6 -30 -4 -14 3 -48 -3 -76 -12 -28 -9 -57 -15 -64 -12 -17
7 -95 -12 -119 -28 -28 -19 -95 -83 -104 -100 -7 -13 -18 -14 -60 -5 -29 5
-83 10 -120 11 -43 2 -74 8 -85 17 -13 11 -21 12 -30 4 -13 -11 -91 -18 -285
-27 -79 -4 -125 -11 -157 -24 -87 -38 -117 -42 -151 -22 -22 13 -37 15 -57 9
-21 -7 -34 -3 -72 24 -43 30 -49 31 -89 22 -52 -14 -212 -10 -230 4 -7 6 -22
11 -32 10 -11 0 -65 2 -120 6 -55 3 -148 9 -206 12 -170 10 -180 34 -18 41 56
2 110 8 120 13 9 6 24 7 33 4 8 -3 20 -3 27 1 15 10 77 15 234 19 72 2 154 7
183 11 44 6 52 5 52 -9 0 -9 7 -16 15 -16 22 0 18 38 -4 45 -61 19 -188 22
-286 7 -33 -5 -64 -8 -68 -5 -4 3 -13 1 -20 -4 -15 -11 -88 -1 -87 12 0 6 -17
10 -38 11 -50 1 -112 13 -112 22 0 14 -73 13 -81 0 -7 -10 -9 -10 -9 0 0 6 -5
12 -11 12 -5 0 -7 -4 -4 -10 3 -5 -1 -10 -10 -10 -8 0 -18 7 -21 15 -4 8 -11
12 -17 8 -20 -12 -52 -11 -62 3 -8 11 -83 14 -360 15 -192 0 -365 -1 -383 -4
-18 -2 -34 -1 -37 3 -6 10 -100 4 -101 -7 -2 -25 -17 -40 -34 -36 -16 4 -18 9
-9 24 9 17 7 19 -20 17 -22 -2 -28 -6 -26 -20 4 -20 -17 -38 -23 -20 -2 7 -8
10 -13 7 -4 -3 -11 6 -15 21 -6 24 -10 26 -43 22 -20 -3 -45 -2 -56 2 -11 4
-30 3 -43 -3 -26 -12 -72 7 -72 30 0 8 5 11 10 8 18 -11 10 7 -11 26 -16 14
-31 17 -58 13 -20 -3 -38 -8 -40 -10 -9 -8 47 -22 73 -17 l28 6 -18 -29 c-22
-34 -35 -45 -49 -40 -6 2 -16 -2 -22 -10 -10 -10 -10 -13 0 -17 9 -3 9 -8 -1
-20 -11 -13 -17 -14 -33 -4 -17 10 -23 9 -34 -6 -13 -18 -14 -18 -24 0 -6 10
-11 12 -11 6 0 -14 -81 -19 -94 -6 -10 11 -36 12 -36 2 0 -11 -41 -7 -56 6
-14 12 26 36 41 24 6 -4 17 -4 25 1 8 6 36 10 63 10 26 0 47 4 47 9 0 14 38 1
42 -14 2 -11 5 -11 15 0 10 11 8 19 -8 39 -18 23 -19 27 -5 32 45 17 -17 56
-67 43 -19 -5 -32 -3 -42 8 -8 8 -30 15 -47 15 -18 0 -38 5 -45 10 -7 6 -19 5
-32 -1 -14 -8 -21 -8 -24 2 -4 8 -8 9 -14 1 -11 -14 -39 -12 -144 11 -73 15
-101 16 -175 7 -90 -10 -329 -9 -394 2 -19 4 -64 11 -100 17 -36 5 -90 14
-120 19 -62 10 -195 19 -380 25 -149 5 -222 13 -234 25 -11 11 0 15 94 34 8 1
23 6 33 10 23 11 4 36 -28 36 -12 0 -28 6 -34 14 -15 18 5 26 68 26 26 0 51 3
55 7 9 9 34 14 71 14 53 0 96 10 93 21 -5 15 -25 18 -128 23 -47 2 -87 4 -89
4 -3 1 0 6 6 12 21 21 131 25 380 15 72 -3 146 -1 163 4 20 6 41 5 58 -1 18
-7 33 -7 48 1 14 8 32 9 55 3 19 -6 47 -6 64 -1 17 4 42 5 58 2 17 -4 27 -1
27 6 0 7 7 10 15 6 8 -3 15 -1 15 4 0 6 14 10 30 10 20 0 30 5 30 15 0 8 -9
15 -19 15 -11 0 -23 5 -26 10 -4 6 -11 8 -16 4 -5 -3 -20 1 -33 9 -14 10 -36
13 -59 10 -19 -2 -45 1 -56 7 -14 7 -21 7 -21 0 0 -12 -47 -13 -54 -1 -3 5
-29 9 -57 9 -28 1 -54 4 -57 7 -7 7 5807 1 5828 -7 8 -3 24 -8 35 -12 11 -4
32 -14 47 -22 15 -8 60 -17 99 -20 40 -3 82 -10 93 -16 11 -6 94 -13 185 -15
92 -3 182 -9 201 -14 19 -5 55 -9 80 -9 25 0 53 -7 63 -15 11 -8 43 -14 77
-14 33 0 67 -4 77 -9 10 -5 36 -8 58 -6 22 1 79 3 128 3 l87 1 0 85 0 85
-4860 0 -4860 0 0 -4720z m3075 4226 c22 0 47 3 55 5 11 3 14 -3 13 -18 -3
-21 10 -29 40 -24 4 0 7 -3 7 -9 0 -5 -6 -10 -14 -10 -8 0 -16 -5 -18 -10 -2
-6 -13 -12 -25 -13 -49 -3 -2 -17 89 -25 10 -1 16 -10 15 -22 -1 -16 -6 -18
-37 -14 -19 3 -39 8 -43 11 -4 3 -14 -1 -22 -7 -8 -7 -25 -10 -37 -7 -13 4
-29 3 -36 -2 -8 -4 -39 -2 -70 6 -31 8 -76 16 -100 18 -24 2 -53 7 -65 11 -12
5 -26 8 -31 9 -5 0 -11 6 -13 13 -3 8 12 12 54 13 32 1 47 3 33 6 -57 9 -71
14 -64 25 5 7 -3 9 -25 6 -17 -2 -31 -1 -31 4 0 4 25 8 55 8 45 0 55 3 55 17
0 15 3 15 21 -4 19 -19 23 -19 50 -6 16 8 31 18 34 23 3 5 20 6 38 2 18 -3 50
-6 72 -6z m690 -74 c-2 -3 -12 -1 -22 2 -15 6 -15 9 -3 16 13 8 35 -8 25 -18z
m4120 -11 c-9 -16 -25 -3 -18 15 4 10 9 12 15 6 6 -6 7 -15 3 -21z m-5159 -10
c-4 -5 0 -11 6 -14 7 -2 -5 -13 -27 -24 -41 -21 -105 -29 -105 -13 0 13 32 28
48 23 6 -3 12 0 12 6 0 6 9 11 19 11 11 0 23 5 26 10 3 6 11 10 16 10 6 0 8
-4 5 -9z m770 -3 c8 -12 -24 -40 -38 -32 -10 6 9 44 22 44 5 0 12 -5 16 -12z
m657 -12 c4 -10 0 -14 -14 -13 -22 1 -25 13 -6 20 6 3 13 6 13 6 1 1 4 -5 7
-13z m87 -6 c0 -5 -2 -10 -4 -10 -3 0 -8 5 -11 10 -3 6 -1 10 4 10 6 0 11 -4
11 -10z m4875 -380 c3 -5 -1 -10 -9 -10 -9 0 -16 5 -16 10 0 6 4 10 9 10 6 0
13 -4 16 -10z m-706 -33 c-2 -1 -15 -11 -29 -22 l-25 -20 19 23 c11 12 24 22
29 22 6 0 8 -1 6 -3z m-4486 -354 c-7 -3 -13 -9 -13 -14 0 -6 5 -7 10 -4 6 3
10 3 10 -2 0 -4 21 -9 46 -10 29 -1 53 -8 63 -19 9 -9 11 -14 5 -11 -6 4 -19
0 -30 -7 -16 -12 -17 -16 -4 -31 8 -10 33 -26 55 -36 62 -28 176 -110 207
-150 34 -42 78 -146 71 -166 -3 -8 -21 -13 -48 -13 -87 0 -97 6 -135 78 -46
87 -96 133 -205 188 -87 43 -95 45 -201 51 -96 5 -116 3 -154 -14 -50 -22
-100 -36 -100 -28 0 2 26 18 58 34 84 42 194 64 304 60 105 -5 116 4 67 49
-28 26 -31 33 -19 46 7 9 16 14 19 10 3 -4 0 -9 -6 -11z m-233 -33 c-20 -13
-33 -13 -25 0 3 6 14 10 23 10 15 0 15 -2 2 -10z m476 -22 c5 -18 15 -32 21
-31 7 2 10 -4 6 -12 -4 -13 -1 -14 20 -6 21 8 25 7 21 -4 -11 -27 -36 -25 -77
5 -23 16 -54 30 -69 30 -15 0 -28 5 -28 10 0 10 13 14 41 11 9 -1 19 5 22 14
10 26 32 17 43 -17z m4634 7 c0 -2 -19 -13 -42 -23 -89 -39 -147 -115 -148
-190 0 -23 -4 -32 -12 -29 -7 2 -12 11 -10 18 2 7 6 36 9 64 8 66 15 79 66
114 49 33 137 63 137 46z m-4494 -42 c-7 -7 -26 7 -26 19 0 6 6 6 15 -2 9 -7
13 -15 11 -17z m-2 -30 c8 -19 -1 -33 -20 -33 -8 0 -14 9 -14 20 0 11 -5 20
-11 20 -5 0 -8 4 -5 9 8 13 44 2 50 -16z m76 -42 c0 -5 -9 -11 -20 -14 -12 -3
-20 -14 -20 -27 0 -18 57 -153 90 -212 6 -10 10 -29 10 -43 0 -39 -24 -20 -42
33 -35 103 -67 163 -113 218 -39 45 -45 56 -27 51 12 -4 31 -10 42 -13 14 -4
20 -2 20 9 0 8 6 17 13 20 14 5 47 -10 47 -22z m277 -62 l6 -32 14 27 c7 14
16 26 19 26 3 0 3 -4 -1 -9 -3 -5 -1 -12 5 -16 5 -3 10 1 10 11 0 13 3 14 15
4 8 -7 15 -20 15 -28 0 -12 3 -13 12 -4 7 7 21 12 31 12 15 0 18 -5 14 -21 -4
-16 -3 -18 8 -9 10 8 17 -2 34 -52 12 -34 21 -67 21 -73 0 -13 -132 -47 -186
-49 l-34 -1 -40 115 c-21 63 -37 116 -35 119 3 2 7 -4 11 -13 8 -22 21 -20 27
4 3 12 14 20 26 20 16 0 23 -8 28 -31z m4117 -13 c-18 -25 -44 -35 -44 -17 0
4 10 20 21 35 28 36 49 19 23 -18z m-3745 -8 c-7 -13 -12 -29 -11 -36 3 -14
-7 -18 -59 -25 -35 -5 -37 -4 -43 26 -4 17 -2 35 4 41 8 8 9 6 5 -6 -4 -11 -2
-18 4 -18 6 0 11 5 11 11 0 7 11 8 30 4 21 -5 35 -2 46 9 8 9 13 16 9 16 -3 0
-3 5 1 12 14 22 16 -9 3 -34z m229 30 c-6 -18 -28 -21 -28 -4 0 9 7 16 16 16
9 0 14 -5 12 -12z m-103 -29 c9 -17 15 -32 13 -34 -2 -2 -29 -6 -61 -10 l-58
-7 3 35 c2 39 20 45 52 18 18 -15 37 -6 29 14 -10 27 6 15 22 -16z m-1740 -40
c-31 -38 -28 -52 11 -59 36 -6 33 -25 -4 -25 -23 0 -28 -5 -30 -30 -2 -16 -13
-38 -25 -47 -20 -15 -20 -18 -6 -35 30 -34 29 -48 -4 -48 -17 0 -32 6 -34 13
-3 6 -12 12 -22 12 -38 0 -43 25 -15 95 15 40 57 95 93 123 54 41 71 41 36 1z
m180 11 c3 -5 1 -10 -4 -10 -6 0 -11 5 -11 10 0 6 2 10 4 10 3 0 8 -4 11 -10z
m145 -69 c0 -6 -4 -13 -10 -16 -5 -3 -10 1 -10 9 0 9 5 16 10 16 6 0 10 -4 10
-9z m830 -94 c0 -27 -17 -12 -23 20 -3 16 -8 37 -12 48 -3 11 3 4 14 -15 11
-19 20 -43 21 -53z m-659 39 c62 -25 119 -62 119 -77 0 -5 -12 -9 -26 -9 -14
0 -33 -4 -42 -9 -13 -7 -31 3 -80 45 -35 30 -68 54 -73 54 -5 0 -9 5 -9 10 0
17 52 11 111 -14z m-365 -43 c-4 -4 -14 1 -22 11 -22 31 -17 43 8 19 12 -13
18 -26 14 -30z m229 18 c69 -42 120 -98 134 -145 7 -25 11 -57 9 -71 -3 -15
-1 -25 6 -24 20 2 61 17 49 18 -7 1 -13 8 -13 17 0 8 4 12 10 9 6 -3 7 1 4 9
-11 28 10 17 36 -19 14 -19 32 -35 40 -35 12 0 13 -2 1 -9 -9 -6 -10 -11 -2
-15 6 -4 9 -12 6 -17 -4 -5 -1 -9 4 -9 12 0 14 11 12 46 -2 27 36 26 55 -1 18
-25 18 -36 -1 -29 -9 4 -15 0 -15 -8 0 -24 -32 -81 -64 -113 -16 -16 -25 -23
-19 -15 6 8 21 32 33 54 l21 39 -35 -21 -35 -21 -3 21 c-3 19 -4 19 -33 -6
-39 -34 -52 -33 -26 0 25 31 26 44 6 44 -9 0 -12 6 -9 15 9 22 -26 19 -56 -5
-27 -21 -45 -26 -35 -10 9 14 -2 12 -28 -5 -13 -8 -46 -19 -75 -25 -47 -9 -57
-7 -124 23 -100 43 -109 56 -106 138 3 56 8 72 39 115 32 44 40 50 83 56 26 4
51 9 54 12 11 12 48 6 77 -13z m2023 -23 c-2 -6 -24 -17 -48 -24 -25 -8 -58
-18 -75 -23 -16 -6 -47 -13 -68 -17 -20 -3 -40 -10 -43 -15 -7 -12 -24 -12
-24 0 0 5 26 17 58 26 31 9 79 27 106 40 51 23 99 30 94 13z m736 -17 c25 2
46 1 46 -4 0 -4 26 -8 58 -9 31 0 100 -3 152 -6 94 -5 270 -5 343 1 20 2 37
-1 37 -5 0 -5 34 -8 75 -7 71 2 96 -3 83 -17 -4 -3 -26 -5 -50 -4 -93 3 -197
3 -293 1 -55 -2 -158 2 -230 8 -71 7 -186 16 -255 21 -69 5 -126 9 -127 10 -2
0 -3 4 -3 9 0 13 103 19 111 7 4 -4 27 -7 53 -5z m2446 5 c0 -3 -4 -8 -10 -11
-5 -3 -10 -1 -10 4 0 6 5 11 10 11 6 0 10 -2 10 -4z m-2740 -46 c41 -6 138
-14 215 -20 78 -5 165 -14 194 -20 30 -5 102 -10 161 -10 l108 0 31 -86 c31
-86 37 -114 24 -114 -165 -11 -205 -18 -224 -38 -25 -27 -39 -28 -46 -2 -3 12
-18 27 -33 35 -38 20 -194 38 -265 32 -57 -6 -63 -4 -110 29 -118 82 -237 154
-257 154 -20 0 -80 39 -74 49 6 10 169 4 276 -9z m-305 -51 c70 -24 163 -73
285 -147 66 -41 -8 -24 -163 37 -15 6 -58 18 -95 26 -77 18 -252 83 -252 95 0
14 65 28 105 23 22 -3 76 -18 120 -34z m-2645 9 c0 -6 -6 -5 -15 2 -8 7 -15
14 -15 16 0 2 7 1 15 -2 8 -4 15 -11 15 -16z m2099 9 c22 -18 60 -16 53 3 -4
12 -2 12 13 -2 27 -25 6 -44 -68 -62 -80 -19 -158 -48 -175 -64 -8 -7 -18 -10
-23 -6 -13 7 -1 24 17 24 8 0 14 4 14 9 0 5 12 12 26 15 35 9 54 29 54 59 0
13 2 26 5 29 10 10 70 7 84 -5z m-1406 -9 c4 -10 8 -9 16 2 9 13 11 13 11 -1
0 -16 -27 -46 -34 -38 -2 2 -7 14 -10 27 -8 23 8 32 17 10z m3246 -55 c32 -62
66 -97 84 -90 23 9 21 39 -3 70 -11 14 -20 30 -20 35 0 15 67 24 88 13 21 -11
82 -77 82 -89 0 -4 -30 -16 -67 -26 -38 -11 -88 -29 -113 -41 -38 -19 -57 -22
-120 -18 -117 7 -116 6 -150 77 -42 90 -41 94 28 99 172 10 170 11 191 -30z
m-3931 11 c-9 -10 -21 -13 -29 -8 -9 5 -8 9 7 15 31 12 39 10 22 -7z m59 -6
c2 -18 0 -20 -7 -8 -12 18 -13 30 -2 30 4 0 9 -10 9 -22z m5373 -28 c43 -45
49 -56 52 -102 1 -28 -1 -53 -7 -55 -5 -1 -9 12 -9 29 1 18 -5 49 -13 68 -14
36 -72 92 -86 83 -13 -8 -39 6 -32 17 14 22 49 7 95 -40z m-4420 25 c0 -8 -7
-15 -16 -15 -14 0 -14 -3 -4 -15 14 -17 3 -20 -20 -5 -13 9 -12 13 9 30 28 24
31 24 31 5z m-1017 -50 c-3 -9 1 -15 11 -15 20 0 39 -36 33 -61 -7 -24 4 -24
31 1 25 24 42 26 42 5 0 -8 -4 -15 -10 -15 -5 0 -10 -5 -10 -12 0 -6 -10 -22
-22 -35 -26 -27 -21 -43 40 -119 54 -69 112 -87 277 -90 135 -2 205 4 205 17
0 5 -15 9 -32 9 -33 1 -154 28 -130 29 6 1 12 8 12 17 0 11 5 14 18 9 37 -16
98 -23 155 -17 43 3 58 2 53 -6 -4 -6 -14 -8 -24 -5 -16 6 -16 6 0 -10 22 -23
32 -22 83 9 25 14 50 22 57 18 7 -4 10 -4 6 1 -12 13 12 47 29 41 10 -4 13 -2
10 8 -8 20 4 28 21 13 13 -10 14 -9 5 7 -8 15 -7 29 4 55 24 55 31 73 43 114
11 35 50 72 50 47 0 -6 -7 -13 -15 -16 -8 -4 -15 -11 -15 -17 0 -5 9 -2 19 7
15 14 24 15 40 7 27 -15 31 -14 31 9 0 20 0 20 19 1 10 -10 25 -21 32 -23 8
-3 11 -9 7 -13 -4 -4 -14 -3 -21 3 -8 7 -17 9 -20 5 -10 -9 14 -34 27 -27 6 3
3 -1 -6 -9 -22 -17 -23 -31 -4 -24 11 4 13 1 9 -10 -4 -11 -2 -14 5 -9 8 5 12
-3 12 -24 0 -30 -1 -31 -37 -25 -21 3 -32 2 -25 -1 11 -5 11 -9 -1 -23 -7 -9
-19 -36 -26 -61 -25 -88 -131 -162 -258 -181 -37 -6 -73 -17 -79 -25 -9 -11
-14 -10 -32 7 -12 11 -22 25 -22 30 0 6 -7 8 -15 5 -9 -3 -18 1 -22 10 -5 13
-7 13 -22 0 -17 -15 -136 -16 -211 -1 -19 3 -58 11 -87 16 -42 8 -62 20 -109
65 -32 29 -63 54 -70 54 -14 0 -51 60 -60 98 -4 15 -13 38 -21 51 -13 20 -13
25 -2 33 11 7 11 11 2 15 -15 5 -17 23 -4 23 5 0 17 -7 25 -16 9 -9 16 -11 16
-4 0 6 -13 16 -29 23 -23 10 -27 16 -20 29 6 11 4 21 -6 32 -25 25 -17 29 15
6 18 -13 27 -26 23 -35z m180 41 c4 -10 0 -12 -14 -9 -22 6 -26 23 -5 23 8 0
16 -6 19 -14z m2119 -1 c2 -16 -102 -74 -162 -91 -114 -32 -133 -47 -106 -86
16 -23 175 -128 193 -128 8 0 22 13 32 30 10 16 33 47 52 67 86 93 136 150
151 172 l17 24 53 -22 c29 -11 76 -25 103 -30 28 -5 82 -21 120 -36 221 -82
204 -78 229 -61 22 14 24 13 34 -10 7 -13 16 -24 21 -24 5 0 23 -22 40 -49 23
-36 36 -73 47 -137 9 -54 21 -94 31 -101 13 -10 10 -18 -29 -60 -113 -120
-166 -186 -236 -290 -41 -62 -79 -110 -83 -107 -24 14 -140 -85 -162 -138
l-15 -37 -55 6 c-36 4 -57 2 -61 -6 -14 -22 11 -36 59 -34 40 2 45 0 40 -16
-12 -39 -35 -188 -35 -231 0 -25 -5 -63 -10 -85 -14 -64 -23 -212 -11 -200 8
9 34 153 62 360 21 150 64 252 129 307 22 19 40 40 40 46 0 7 5 12 10 12 6 0
8 -11 4 -25 -12 -46 -9 -60 12 -69 20 -9 21 -19 28 -210 10 -294 16 -458 21
-576 3 -58 5 -151 4 -207 0 -87 2 -103 17 -111 10 -6 23 -25 29 -43 l12 -34
-66 -22 c-36 -13 -74 -31 -85 -42 -12 -10 -42 -24 -68 -32 -27 -7 -48 -17 -48
-21 0 -4 -9 -8 -19 -8 -21 0 -189 -53 -236 -74 -71 -33 -107 -45 -152 -52 -26
-3 -53 -11 -60 -16 -7 -6 -31 -3 -66 7 -30 8 -61 13 -70 9 -10 -3 -17 -1 -17
4 0 12 -38 27 -60 24 -19 -3 -83 127 -71 143 30 35 81 149 81 180 1 9 67 161
103 233 20 40 36 76 37 80 1 27 183 182 213 182 8 0 12 -31 13 -97 1 -78 5
-99 18 -109 13 -9 14 -14 5 -19 -18 -12 -6 -145 15 -157 20 -11 21 -32 1 -24
-13 4 -13 2 -5 -14 5 -10 10 -28 10 -40 0 -12 4 -19 9 -15 11 6 7 112 -9 245
-6 52 -13 124 -16 160 -3 36 -11 148 -18 250 -15 200 -15 348 -1 395 29 102
205 265 389 360 45 23 117 61 160 84 43 24 102 50 130 58 56 16 96 38 96 53 0
17 -47 11 -97 -11 -79 -36 -247 -120 -263 -133 -8 -7 -40 -25 -70 -41 -87 -45
-242 -168 -331 -261 -45 -47 -47 -52 -57 -134 -12 -93 -9 -215 8 -358 11 -96
9 -112 -15 -112 -34 0 -162 -81 -246 -158 -26 -23 -32 -24 -241 -27 -118 -2
-232 -8 -254 -13 -21 -5 -92 -10 -157 -11 -105 -2 -118 0 -124 16 -3 10 -14
37 -25 60 -33 76 -39 97 -47 160 l-7 62 30 -5 c17 -3 39 -7 48 -9 17 -3 48 25
66 60 6 12 8 101 6 225 -5 264 16 405 78 538 12 26 19 59 17 85 -9 156 318
423 635 517 71 21 166 57 174 65 9 9 33 1 34 -10z m158 -14 c0 -10 -234 -241
-244 -241 -8 0 -38 21 -118 81 -22 16 -21 16 18 29 57 19 191 87 214 110 35
35 71 49 102 38 15 -6 28 -13 28 -17z m-1692 -6 c-3 -3 -9 2 -12 12 -6 14 -5
15 5 6 7 -7 10 -15 7 -18z m3779 9 c-3 -3 -12 -4 -19 -1 -8 3 -5 6 6 6 11 1
17 -2 13 -5z m-134 -11 c16 -15 -18 -33 -64 -33 -82 0 -72 22 16 33 17 2 33 5
36 6 3 0 9 -2 12 -6z m1407 -13 c0 -5 -4 -10 -10 -10 -5 0 -10 5 -10 10 0 6 5
10 10 10 6 0 10 -4 10 -10z m-985 -26 c14 -14 35 -44 46 -67 12 -23 31 -55 41
-70 11 -16 18 -30 16 -33 -6 -5 -107 -10 -383 -19 -110 -3 -247 -10 -305 -15
-58 -6 -135 -12 -173 -14 l-68 -5 -25 41 c-29 46 -30 45 51 83 50 23 253 68
355 80 30 3 98 12 150 20 211 32 262 32 295 -1z m-3655 -24 c11 0 24 -9 30
-20 8 -14 8 -20 0 -20 -6 0 -13 7 -16 15 -9 24 -22 8 -16 -20 3 -20 9 -25 31
-23 14 2 30 8 34 13 5 6 6 2 3 -8 -3 -10 -6 -23 -6 -29 0 -6 -7 -8 -15 -4 -8
3 -15 1 -15 -4 0 -5 -11 -25 -24 -45 -14 -20 -32 -59 -42 -88 -9 -29 -24 -61
-34 -72 -38 -44 -55 -85 -43 -103 9 -15 5 -22 -22 -41 -32 -21 -35 -22 -91 -8
-51 13 -84 17 -166 20 -19 1 -13 17 7 17 52 0 166 76 231 155 31 39 36 51 36
97 0 52 0 52 12 23 7 -16 12 -33 10 -36 -2 -4 5 -14 15 -23 16 -15 19 -15 24
-1 4 9 1 15 -9 15 -13 0 -15 6 -10 28 4 15 8 36 10 46 1 11 8 22 14 24 15 5
16 32 1 32 -5 0 -7 5 -4 10 4 6 16 8 28 5 21 -5 21 -5 0 6 -25 13 -32 35 -8
25 8 -3 15 -1 15 4 0 6 -4 10 -10 10 -5 0 -6 8 -2 18 6 16 7 16 10 0 2 -10 12
-18 22 -18z m405 2 c0 -19 -5 -28 -16 -28 -14 0 -15 5 -7 28 6 15 13 28 16 28
4 0 7 -13 7 -28z m265 -1 c0 -4 -15 -15 -32 -25 -136 -77 -324 -255 -382 -358
-24 -44 -43 -68 -55 -68 -46 0 -166 -151 -140 -177 5 -5 -18 -6 -58 -2 -38 5
-76 8 -85 8 -9 1 -17 9 -17 19 0 9 -1 37 -1 62 -1 36 4 49 23 65 14 11 32 34
41 50 17 32 86 113 86 101 0 -4 -5 -17 -12 -29 -14 -26 -20 -67 -10 -67 14 0
59 56 77 95 10 22 29 54 41 71 13 17 21 34 17 37 -3 3 4 19 16 35 12 17 21 36
21 44 0 7 7 26 15 42 9 16 17 47 18 68 1 21 3 38 5 38 1 0 7 -12 12 -26 7 -18
15 -24 26 -20 8 3 24 1 34 -4 13 -7 20 -6 23 3 3 9 9 9 26 -1 12 -7 27 -10 32
-6 13 8 4 -26 -18 -70 -8 -15 -11 -32 -6 -37 17 -17 51 4 69 44 11 22 26 44
34 47 8 4 51 26 95 48 58 30 83 38 92 30 7 -6 13 -13 13 -17z m-1627 -26 c7
-17 -9 -30 -18 -14 -4 5 -13 8 -21 5 -8 -3 -14 -1 -14 3 0 21 46 26 53 6z
m5467 -6 c0 -6 -4 -7 -10 -4 -5 3 -10 11 -10 16 0 6 5 7 10 4 6 -3 10 -11 10
-16z m-4362 -27 c-9 -10 -9 -15 0 -21 9 -5 5 -26 -17 -77 -30 -73 -81 -166
-81 -149 0 9 12 38 56 128 8 16 14 49 14 73 0 24 5 44 10 44 6 0 10 10 10 23
0 17 2 19 10 7 6 -9 5 -19 -2 -28z m4772 -12 c-6 -11 -15 -20 -20 -20 -14 0
-12 6 6 24 21 22 27 20 14 -4z m-5843 -75 c-1 -35 2 -66 7 -67 5 -2 10 5 12
15 4 29 14 33 14 7 0 -13 8 -32 18 -43 16 -20 16 -20 -1 -14 -10 4 -29 7 -41
7 -12 0 -31 7 -42 16 -10 8 -13 13 -6 9 8 -4 12 4 12 27 0 33 17 108 25 108 2
0 3 -29 2 -65z m2991 49 c51 -5 70 -11 98 -36 19 -16 34 -35 34 -40 0 -6 -44
-57 -97 -115 l-97 -105 -16 98 c-13 80 -22 108 -48 146 -17 26 -32 51 -32 56
0 9 23 8 158 -4z m652 -32 c30 -30 110 -146 110 -160 0 -5 11 -19 25 -32 14
-13 25 -31 25 -40 0 -9 9 -25 20 -35 17 -15 24 -16 46 -7 13 7 36 12 49 12 14
0 25 5 25 11 0 5 5 7 10 4 6 -4 17 -1 25 5 8 7 15 10 15 7 0 -3 21 1 48 9 60
19 153 33 146 22 -3 -4 -1 -8 5 -8 5 0 11 4 13 9 2 5 48 12 103 16 55 3 133
10 173 16 75 11 131 5 145 -15 5 -8 10 -7 17 4 9 13 11 13 20 0 7 -11 5 -16
-5 -18 -8 -2 -15 -8 -15 -14 0 -6 -6 -5 -15 2 -13 11 -14 10 -10 -2 3 -8 -3
-23 -15 -33 -25 -22 -26 -39 -2 -31 14 5 13 3 -3 -9 -11 -9 -28 -14 -37 -12
-9 3 -28 -8 -44 -24 -15 -16 -33 -29 -38 -29 -6 0 -2 7 8 15 11 8 17 18 13 21
-8 8 -197 -105 -197 -117 0 -5 -7 -9 -15 -9 -8 0 -15 -4 -15 -8 0 -4 -18 -27
-40 -50 -22 -22 -40 -48 -40 -56 0 -8 -3 -16 -7 -18 -25 -10 -90 -111 -123
-189 -21 -49 -48 -105 -59 -123 -12 -18 -21 -39 -21 -46 0 -18 -148 -286 -166
-301 -8 -6 -14 -16 -14 -21 0 -5 -9 -27 -19 -49 -19 -39 -19 -39 2 -54 16 -11
23 -12 29 -2 5 8 8 7 8 -5 0 -19 -34 -25 -45 -8 -3 5 -12 7 -19 4 -8 -3 -40 0
-73 6 -71 14 -91 16 -168 18 l-61 2 -12 83 c-11 70 -22 258 -26 416 l-1 44 60
14 c33 7 78 15 100 18 22 3 51 8 65 11 14 3 52 8 85 10 33 2 92 6 130 9 39 2
94 5 123 6 58 2 72 23 25 36 -34 8 -348 -19 -528 -45 -154 -23 -374 -50 -465
-57 -36 -3 -94 -8 -130 -12 -74 -7 -66 -7 -182 0 -47 3 -95 10 -105 15 -10 5
-24 7 -30 5 -19 -7 -16 4 7 27 l21 21 18 -22 18 -22 34 25 c19 15 61 38 93 52
33 15 74 37 90 50 28 21 137 76 150 76 4 0 45 22 94 49 48 27 114 57 147 66
65 18 103 31 150 51 91 39 220 83 290 99 88 20 125 34 125 47 0 18 -31 19 -97
4 -37 -9 -77 -18 -88 -20 -27 -5 -129 -45 -242 -95 -51 -22 -118 -48 -150 -57
-32 -9 -96 -38 -143 -64 -47 -27 -123 -67 -170 -89 -47 -22 -110 -54 -140 -71
-62 -33 -70 -35 -70 -17 0 11 225 246 330 344 25 23 65 66 90 94 89 102 139
146 219 193 45 27 84 54 89 61 10 18 47 24 121 19 53 -4 69 -10 91 -32z
m-3760 13 c-7 -8 -17 -12 -22 -9 -6 4 -5 10 3 15 22 14 33 10 19 -6z m3460 -5
c-19 -13 -30 -13 -30 0 0 6 10 10 23 10 18 0 19 -2 7 -10z m-2500 -21 c0 -5
-4 -9 -10 -9 -5 0 -10 7 -10 16 0 8 5 12 10 9 6 -3 10 -10 10 -16z m-756 -44
c7 -46 14 -53 32 -35 7 7 16 4 29 -10 18 -20 18 -20 -23 -20 -23 0 -41 3 -40
8 1 4 -2 19 -5 35 -16 63 -17 78 -9 73 6 -3 13 -26 16 -51z m5096 40 c0 -13
-38 -41 -45 -33 -1 2 1 13 6 26 9 24 39 30 39 7z m-5253 -17 c-2 -7 0 -21 5
-30 12 -23 -4 -23 -25 0 -13 14 -14 21 -5 30 16 16 31 15 25 0z m5014 -28 c10
-6 19 -20 19 -31 0 -11 5 -29 11 -41 9 -16 17 -19 45 -13 41 7 47 -11 8 -25
-39 -15 -86 -12 -112 8 -23 17 -23 20 -9 53 7 19 12 40 10 47 -6 15 2 15 28 2z
m-226 -110 c-3 -5 -13 -10 -21 -10 -8 0 -14 5 -14 10 0 6 9 10 21 10 11 0 17
-4 14 -10z m421 -40 l39 -20 -40 6 c-46 8 -55 12 -55 25 0 14 12 11 56 -11z
m-5080 -58 c9 -12 26 -14 90 -9 43 4 89 9 102 11 12 3 22 1 22 -3 0 -4 -42
-17 -92 -30 -51 -13 -98 -25 -104 -27 -6 -3 -15 10 -20 28 -11 38 -51 56 -41
19 3 -12 1 -21 -4 -21 -5 0 -9 7 -9 15 0 8 -5 15 -11 15 -6 0 -17 6 -24 14
-12 11 -7 13 33 8 26 -3 52 -12 58 -20z m-90 -42 c6 0 16 -18 23 -39 6 -22 19
-42 29 -44 9 -3 -2 -5 -26 -6 -25 -1 -49 5 -57 13 -11 11 -55 110 -55 124 0 1
17 -9 37 -23 21 -14 43 -25 49 -25z m3094 47 c0 -2 -16 -19 -37 -38 -38 -36
-38 -28 0 15 19 22 37 33 37 23z m-3039 -73 c5 -15 8 -29 5 -31 -2 -2 -8 10
-14 26 -13 38 -5 41 9 5z m484 -13 c17 -5 59 -12 95 -15 36 -2 81 -7 100 -11
84 -15 80 -12 80 -58 0 -72 -15 -73 -183 -17 -81 27 -157 54 -169 61 -27 13
-68 50 -68 59 0 8 107 -5 145 -19z m-357 -37 c21 -6 21 -7 5 -19 -13 -10 -21
-10 -35 -1 -35 21 -18 32 30 20z m237 -30 c13 -9 30 -17 37 -18 7 -2 20 -6 28
-9 8 -3 66 -22 128 -42 112 -36 113 -37 86 -51 -15 -8 -29 -13 -31 -10 -2 2
-30 -4 -62 -14 -36 -11 -65 -14 -79 -9 -17 6 -22 5 -22 -8 0 -12 -3 -13 -14
-4 -11 9 -15 8 -20 -4 -5 -13 -10 -14 -28 -4 -16 9 -23 9 -26 0 -2 -6 -11 -11
-19 -11 -23 0 -212 123 -209 135 1 5 36 16 77 23 41 8 85 20 99 27 14 7 26 14
28 14 1 1 14 -6 27 -15z m3791 -202 c-18 -16 -18 -16 -6 6 6 13 14 21 18 18 3
-4 -2 -14 -12 -24z m-1536 -70 c0 -10 -22 -32 -32 -32 -5 0 -3 9 4 20 13 20
28 27 28 12z m635 -141 c-8 -17 -19 -32 -25 -36 -8 -5 -48 -70 -110 -177 -8
-14 -22 -39 -31 -55 -14 -23 -15 -39 -8 -83 5 -30 6 -76 3 -101 -4 -27 -2 -55
5 -67 10 -20 6 -22 -76 -47 -49 -15 -95 -36 -105 -46 -9 -10 -23 -19 -32 -19
-20 0 -96 -49 -96 -61 0 -5 -5 -9 -11 -9 -10 0 -3 155 7 172 3 4 7 20 9 35 6
39 14 84 21 113 3 14 7 46 8 72 2 41 11 58 74 140 75 98 132 159 132 141 0 -6
-23 -39 -50 -74 -150 -191 -136 -165 -140 -259 -8 -158 -5 -253 6 -257 7 -2
13 33 17 104 10 175 18 233 33 233 7 0 22 17 35 38 47 78 175 241 194 246 30
8 29 1 -5 -35 -42 -46 -120 -146 -120 -155 0 -4 -11 -22 -25 -40 -14 -18 -25
-40 -25 -49 0 -9 -10 -35 -22 -58 -12 -23 -20 -46 -19 -52 6 -14 11 -63 14
-120 2 -36 7 -50 17 -50 12 0 15 19 15 95 0 79 5 106 26 162 24 60 73 138 92
146 4 2 7 8 7 13 0 12 32 49 43 49 8 0 -17 -37 -85 -130 -26 -35 -30 -61 -28
-170 1 -85 10 -120 29 -120 3 0 6 46 4 102 -2 116 11 163 62 218 17 19 45 58
60 85 31 55 74 116 90 127 21 16 25 7 10 -21z m101 4 c2 -11 5 -33 8 -50 3
-16 8 -88 11 -160 10 -206 13 -254 19 -263 12 -19 -14 -34 -60 -33 -51 0 -171
-15 -195 -24 -12 -4 -14 17 -14 122 0 124 1 130 32 189 32 62 78 126 126 178
15 16 27 38 27 48 0 27 42 20 46 -7z m-3659 -1 c-15 -8 -33 -12 -39 -8 -7 5
-8 3 -4 -5 5 -7 15 -10 23 -6 13 4 13 3 4 -8 -16 -20 13 -45 33 -28 10 9 16 8
26 -4 11 -13 15 -13 21 -3 13 20 11 40 -3 32 -18 -12 -59 -11 -55 1 2 5 11 10
20 10 8 0 19 4 23 8 4 4 2 7 -4 7 -7 0 -12 3 -12 8 0 4 32 6 70 4 39 -2 68 -7
66 -10 -2 -4 22 -8 53 -9 52 -2 129 -21 90 -22 -19 -1 -33 -27 -19 -36 4 -3
16 -2 27 1 15 6 16 4 6 -7 -18 -19 -17 -45 0 -30 8 6 17 8 20 4 4 -3 10 2 13
11 5 13 9 14 14 5 5 -7 0 -19 -12 -28 -13 -11 -20 -30 -21 -53 -1 -30 -3 -33
-15 -22 -7 8 -31 14 -53 14 -32 0 -39 3 -37 17 2 11 -5 19 -17 21 -16 2 -17 1
-5 -7 27 -18 2 -24 -127 -27 -70 -2 -145 -6 -165 -9 -36 -6 -38 -5 -38 19 0
21 5 26 24 26 32 0 38 12 30 55 -6 32 -9 35 -40 35 -32 0 -33 1 -22 24 11 26
31 32 108 34 l45 1 -28 -15z m-254 -24 c4 -15 -3 -20 -37 -25 -22 -4 -48 -12
-56 -19 -13 -10 -13 -9 0 9 34 48 52 63 70 58 10 -3 20 -13 23 -23z m3527 11
c0 -5 -8 -15 -17 -22 -35 -29 -156 -204 -160 -231 -7 -57 -11 -85 -31 -183
-11 -55 -24 -144 -28 -198 -6 -81 -11 -105 -33 -140 -15 -23 -35 -59 -44 -79
-18 -37 -37 -50 -37 -25 -1 6 -2 39 -4 72 -2 33 -7 225 -11 426 -8 355 -7 367
11 372 10 3 88 5 172 5 84 0 155 2 159 6 9 9 23 7 23 -3z m-3696 -63 c-19 -35
-39 -81 -45 -103 -10 -33 -13 -37 -19 -20 -4 12 -2 25 7 33 7 7 13 17 13 22 0
5 3 16 7 26 5 15 2 16 -28 11 -19 -3 -28 -3 -21 0 6 2 10 9 6 14 -7 11 -1 11
30 -1 21 -8 27 -6 35 9 6 10 7 21 4 25 -3 3 -1 6 5 6 6 0 14 9 17 20 3 11 10
20 15 20 4 0 -7 -28 -26 -62z m231 42 c3 -5 1 -10 -4 -10 -6 0 -11 5 -11 10 0
6 2 10 4 10 3 0 8 -4 11 -10z m584 -19 c0 -10 -2 -11 -6 -3 -2 6 -9 10 -14 6
-12 -7 -31 5 -24 16 9 14 45 -1 44 -19z m58 -36 c0 -8 -4 -12 -9 -9 -4 3 -8 9
-8 15 0 5 4 9 8 9 5 0 9 -7 9 -15z m3873 5 c0 -5 -5 -10 -11 -10 -5 0 -7 5 -4
10 3 6 8 10 11 10 2 0 4 -4 4 -10z m-4912 -30 c-22 -30 -35 -41 -22 -17 9 16
36 47 41 47 2 0 -6 -13 -19 -30z m236 -12 c6 -4 23 -8 39 -8 23 0 27 -4 27
-27 0 -42 -37 -96 -60 -90 -11 3 -17 1 -14 -4 3 -5 -2 -12 -12 -16 -25 -9 -46
25 -39 62 10 46 39 116 44 102 2 -6 9 -15 15 -19z m209 -15 c-7 -2 -19 -2 -25
0 -7 3 -2 5 12 5 14 0 19 -2 13 -5z m634 -15 c-3 -8 -6 -5 -6 6 -1 11 2 17 5
13 3 -3 4 -12 1 -19z m-88 -11 c1 7 8 10 17 6 10 -4 12 -9 5 -16 -14 -14 -41
-1 -40 20 0 16 1 16 9 -2 5 -11 9 -15 9 -8z m-913 -19 c10 -13 15 -20 10 -16
-5 4 -15 3 -23 -4 -11 -8 -12 -7 -7 6 4 11 1 16 -12 16 -16 0 -17 2 -4 10 8 5
15 10 16 10 0 0 9 -10 20 -22z m891 -20 c-3 -8 -6 -5 -6 6 -1 11 2 17 5 13 3
-3 4 -12 1 -19z m5313 -5 c0 -5 -39 -48 -85 -97 -47 -49 -85 -94 -85 -99 0 -5
-13 -26 -30 -47 -35 -45 -36 -50 -10 -50 12 0 25 10 31 23 5 12 15 32 22 43
19 33 217 237 217 224 0 -6 -33 -46 -74 -88 -75 -77 -129 -144 -154 -188 -7
-13 -17 -24 -23 -24 -5 0 -9 -6 -9 -14 0 -21 90 -25 185 -9 79 13 285 15 285
2 0 -4 7 -9 14 -12 11 -4 13 -1 9 10 -5 13 -2 15 11 10 10 -4 22 -7 26 -7 5 0
8 -15 6 -34 -1 -19 1 -33 5 -30 4 2 15 -12 25 -31 10 -23 22 -34 30 -31 8 3
14 1 14 -4 0 -6 6 -10 14 -10 8 0 16 -7 20 -15 3 -8 12 -15 21 -15 8 0 15 -4
15 -10 0 -14 -12 -13 -35 3 -11 8 -31 17 -45 20 -23 6 -24 5 -6 -8 10 -8 16
-21 13 -29 -7 -17 26 -32 44 -20 7 4 9 3 5 -4 -3 -6 -2 -13 4 -17 5 -3 10 1
10 11 0 13 3 14 15 4 8 -6 18 -9 23 -6 5 3 9 0 9 -7 0 -7 -16 -13 -39 -14 -21
0 -38 3 -38 8 0 5 -5 9 -11 9 -5 0 -7 -5 -4 -10 4 -7 -7 -9 -29 -6 -20 2 -38
0 -42 -5 -4 -6 -10 -6 -18 0 -8 7 -79 9 -192 7 -98 -2 -296 -5 -439 -8 l-261
-4 -46 -26 c-42 -25 -68 -54 -93 -103 -11 -21 -12 -90 -2 -115 3 -8 7 -28 9
-45 4 -36 -35 -33 478 -39 201 -2 371 -5 378 -5 6 0 24 0 40 0 61 1 338 -12
348 -16 6 -2 14 -13 17 -25 6 -21 4 -22 -109 -18 -107 3 -119 0 -115 -24 0 -5
-8 -8 -19 -8 -17 0 -20 -7 -20 -39 0 -22 -4 -42 -8 -45 -5 -3 -6 22 -4 55 4
52 2 59 -14 59 -11 0 -80 2 -154 5 -347 13 -416 6 -392 -41 19 -38 31 -70 38
-104 13 -69 11 -69 256 -70 122 0 226 -3 231 -7 6 -4 30 -6 53 -4 23 1 45 -2
49 -8 3 -7 17 -8 33 -4 24 6 26 5 13 -10 -16 -20 -57 -23 -64 -4 -3 9 -8 9
-18 -2 -9 -9 -9 -11 -1 -7 22 13 13 -10 -14 -33 l-26 -22 7 22 c6 18 4 21 -10
15 -12 -4 -16 -2 -12 6 3 10 -20 12 -107 10 -113 -3 -146 -14 -146 -49 0 -13
30 -16 197 -17 39 -1 66 -5 60 -9 -7 -4 -64 -6 -127 -5 -106 3 -118 1 -147
-20 -39 -27 -41 -27 -36 1 4 22 4 23 -118 25 -102 2 -125 -1 -141 -14 -22 -21
-23 -34 -3 -34 8 0 15 -4 15 -10 0 -15 -62 -22 -141 -15 -67 6 -177 14 -221
15 -10 0 -18 7 -18 15 0 8 -6 15 -13 15 -15 0 -36 45 -44 94 -3 20 -9 36 -13
36 -4 0 -11 17 -15 38 -4 20 -12 43 -18 51 -18 21 -13 184 7 212 9 14 16 43
16 71 0 26 5 50 10 53 6 3 10 19 10 34 0 32 24 96 40 106 5 3 10 16 10 28 0
16 -3 18 -12 9 -21 -21 -29 -13 -12 14 9 14 23 23 30 20 13 -5 96 45 144 88
67 59 153 105 236 126 44 11 65 37 38 47 -8 3 -25 1 -37 -5 -12 -5 -40 -17
-62 -26 -22 -9 -52 -23 -67 -30 -40 -21 -56 -3 -50 55 4 47 4 47 48 53 58 7
134 -3 141 -20 8 -20 33 -17 33 4 0 23 82 126 168 214 71 71 72 72 72 61z
m-6203 -25 c-3 -8 -6 -5 -6 6 -1 11 2 17 5 13 3 -3 4 -12 1 -19z m1863 8 c0
-3 -4 -8 -10 -11 -5 -3 -10 -1 -10 4 0 6 5 11 10 11 6 0 10 -2 10 -4z m3132
-28 c-7 -7 -12 -8 -12 -2 0 14 12 26 19 19 2 -3 -1 -11 -7 -17z m65 -3 c8 -9
13 -18 11 -21 -3 -2 -13 5 -23 16 -21 23 -11 27 12 5z m-5072 -4 c3 -5 2 -12
-3 -15 -5 -3 -9 1 -9 9 0 17 3 19 12 6z m5048 -21 c9 -11 17 -25 17 -30 0 -16
-18 -11 -29 8 -9 16 -11 15 -31 -6 l-22 -23 26 -26 c14 -14 26 -30 26 -36 0
-6 -9 -1 -20 10 -10 12 -30 29 -42 38 -22 16 -22 16 -4 30 16 12 17 17 6 30
-7 9 -8 15 -2 15 6 0 13 -6 16 -12 4 -10 9 -8 18 5 16 22 20 21 41 -3z m1314
-2 c-3 -8 -6 -5 -6 6 -1 11 2 17 5 13 3 -3 4 -12 1 -19z m-6137 -6 c0 -4 -10
-9 -22 -9 -18 -2 -20 0 -8 7 18 12 30 13 30 2z m118 -9 c-10 -2 -26 -2 -35 0
-10 3 -2 5 17 5 19 0 27 -2 18 -5z m139 1 c-3 -3 -12 -4 -19 -1 -8 3 -5 6 6 6
11 1 17 -2 13 -5z m5820 -31 c-3 -10 -5 -4 -5 12 0 17 2 24 5 18 2 -7 2 -21 0
-30z m-6084 0 c-7 -2 -19 -2 -25 0 -7 3 -2 5 12 5 14 0 19 -2 13 -5z m4812 -3
c3 -5 1 -10 -4 -10 -6 0 -11 5 -11 10 0 6 2 10 4 10 3 0 8 -4 11 -10z m-4868
-6 c-3 -3 -12 -4 -19 -1 -8 3 -5 6 6 6 11 1 17 -2 13 -5z m176 -1 c-18 -2 -48
-2 -65 0 -18 2 -4 4 32 4 36 0 50 -2 33 -4z m6204 -55 c-2 -13 -4 -3 -4 22 0
25 2 35 4 23 2 -13 2 -33 0 -45z m-1583 36 c3 -8 10 -12 16 -9 5 3 10 -3 10
-14 0 -12 -7 -21 -15 -21 -8 0 -15 -4 -15 -10 0 -16 22 -12 36 8 12 16 13 16
19 0 8 -21 31 -24 38 -5 2 6 8 8 13 4 5 -4 2 -12 -6 -17 -13 -8 -13 -13 -2
-30 12 -19 11 -20 -6 -11 -15 8 -23 6 -38 -11 -19 -21 -19 -21 3 -9 15 7 29 8
40 2 10 -5 35 -17 56 -27 20 -10 37 -21 37 -24 0 -15 43 -51 55 -46 8 3 21 -6
29 -20 9 -13 25 -24 36 -24 13 0 24 -10 31 -26 13 -36 2 -44 -22 -15 -11 13
-43 36 -72 52 -29 15 -52 33 -52 41 0 7 -24 26 -53 41 -43 23 -56 26 -68 16
-12 -10 -11 -14 8 -27 13 -8 41 -32 63 -52 22 -21 50 -41 63 -45 32 -9 123
-123 163 -203 25 -49 34 -81 35 -120 1 -57 18 -88 34 -62 5 8 10 10 10 4 0 -6
-9 -19 -20 -29 -11 -10 -20 -25 -20 -33 0 -12 -3 -12 -15 -2 -8 7 -15 19 -15
27 0 9 -12 3 -31 -17 -58 -58 -162 -97 -145 -55 8 21 -14 87 -27 82 -8 -3 -11
-24 -9 -65 l3 -61 -52 -25 c-29 -14 -68 -29 -88 -32 -20 -4 -40 -10 -46 -14
-5 -4 -26 -11 -45 -15 -19 -4 -69 -18 -110 -32 -68 -23 -164 -43 -275 -59 -22
-3 -63 -13 -92 -23 -28 -10 -73 -18 -100 -20 l-48 -2 2 75 c1 42 4 80 7 85 4
5 2 12 -4 16 -5 3 -10 21 -10 39 0 20 -8 40 -20 51 -26 23 -37 12 -20 -20 9
-18 11 -47 6 -112 -9 -122 -12 -143 -20 -151 -4 -4 -67 -7 -139 -6 -206 1
-406 61 -494 146 -70 68 -96 129 -101 231 -3 50 0 92 6 100 5 6 13 28 17 47 4
19 14 43 23 52 14 16 16 16 27 2 10 -14 14 -9 25 32 7 27 20 59 27 71 24 37
118 95 161 99 21 2 61 11 88 20 27 9 56 18 64 19 20 3 51 14 75 27 11 7 79 14
152 16 131 5 223 -5 442 -45 52 -9 110 -13 150 -9 36 3 72 6 79 6 7 0 10 5 7
10 -3 6 -26 10 -49 10 -24 0 -57 7 -72 15 -16 8 -37 12 -46 9 -23 -7 -23 14
-2 60 18 36 31 38 68 7 14 -12 20 -13 23 -3 3 6 9 10 13 7 5 -3 6 -13 3 -23
-6 -15 -5 -15 10 -3 14 11 17 11 18 0 0 -8 4 -4 9 9 5 12 14 22 19 22 5 0 12
8 14 18 4 15 5 15 6 0 0 -9 -6 -24 -15 -32 -11 -12 -12 -16 -2 -16 19 0 33 12
47 38 6 12 18 22 26 22 8 0 15 7 15 15 0 8 5 15 10 15 14 0 12 27 -2 34 -7 3
-1 4 14 1 22 -4 26 -2 22 10 -3 8 -10 12 -15 9 -5 -3 -9 2 -9 10 0 21 26 21
34 0z m106 -5 c0 -5 -4 -9 -10 -9 -5 0 -10 7 -10 16 0 8 5 12 10 9 6 -3 10
-10 10 -16z m1209 -22 c0 -21 -1 -21 -9 -2 -12 28 -12 37 0 30 6 -3 10 -16 9
-28z m-4535 -9 c6 -5 1 -8 -11 -8 -25 0 -26 1 -16 26 5 14 8 15 11 3 3 -7 10
-17 16 -21z m4573 -5 c-3 -10 -5 -4 -5 12 0 17 2 24 5 18 2 -7 2 -21 0 -30z
m-6487 13 c0 -2 -8 -10 -17 -17 -16 -13 -17 -12 -4 4 13 16 21 21 21 13z m160
-16 c0 -5 -10 -10 -22 -9 -22 0 -22 1 -3 9 11 5 21 9 23 9 1 1 2 -3 2 -9z
m107 4 c-3 -3 -12 -4 -19 -1 -8 3 -5 6 6 6 11 1 17 -2 13 -5z m86 -1 c-7 -2
-21 -2 -30 0 -10 3 -4 5 12 5 17 0 24 -2 18 -5z m6067 -35 c0 -4 -4 -8 -10 -8
-5 0 -10 4 -10 9 0 5 -3 18 -6 28 -5 16 -4 16 10 -1 9 -11 16 -23 16 -28z
m136 13 c-2 -34 -16 -55 -16 -23 0 20 9 52 15 52 1 0 2 -13 1 -29z m-5629 13
c-3 -3 -12 -4 -19 -1 -8 3 -5 6 6 6 11 1 17 -2 13 -5z m4148 -4 c-3 -5 -10
-10 -16 -10 -5 0 -9 5 -9 10 0 6 7 10 16 10 8 0 12 -4 9 -10z m-3225 -45 c0
-27 -5 -45 -11 -45 -7 0 -18 -8 -25 -17 -12 -16 -13 -16 -9 6 2 12 10 29 16
37 7 8 9 17 5 21 -3 3 -6 1 -6 -5 0 -7 -7 -12 -16 -12 -8 0 -13 -4 -10 -9 7
-10 -19 -23 -28 -14 -3 4 0 13 7 21 9 11 5 11 -15 -2 -15 -10 -25 -23 -21 -30
4 -7 1 -6 -7 1 -11 10 -10 16 5 33 10 11 29 20 42 20 16 0 22 4 17 12 -5 7 -2
9 9 5 8 -3 21 1 27 9 18 21 20 18 20 -31z m4801 2 c-13 -13 -15 1 -4 30 7 17
8 17 11 -1 2 -10 -1 -23 -7 -29z m-1400 10 c-10 -9 -11 -8 -5 6 3 10 9 15 12
12 3 -3 0 -11 -7 -18z m1213 -9 c-10 -16 -22 -7 -17 13 4 15 8 17 14 8 4 -7 5
-17 3 -21z m-1574 18 c0 -2 -7 -6 -15 -10 -8 -3 -15 -1 -15 4 0 6 7 10 15 10
8 0 15 -2 15 -4z m50 0 c0 -3 -4 -8 -10 -11 -5 -3 -10 -1 -10 4 0 6 5 11 10
11 6 0 10 -2 10 -4z m100 -6 c0 -5 -4 -10 -10 -10 -5 0 -10 5 -10 10 0 6 5 10
10 10 6 0 10 -4 10 -10z m-130 -20 c0 -5 -4 -10 -10 -10 -5 0 -10 5 -10 10 0
6 5 10 10 10 6 0 10 -4 10 -10z m60 -5 c0 -9 -6 -12 -15 -9 -8 4 -12 10 -9 15
8 14 24 10 24 -6z m-3327 -35 c-3 -12 -8 -19 -11 -16 -5 6 5 36 12 36 2 0 2
-9 -1 -20z m4244 -22 c-3 -8 -6 -5 -6 6 -1 11 2 17 5 13 3 -3 4 -12 1 -19z
m-2827 -25 c-1 -10 -20 -30 -44 -45 -24 -15 -71 -53 -105 -83 -34 -30 -65 -55
-70 -55 -4 0 -20 -23 -35 -51 -32 -57 -42 -59 -27 -3 6 20 8 41 4 47 -3 5 -1
12 5 16 5 3 45 38 87 76 105 95 185 138 185 98z m3748 -51 c2 -7 -2 -10 -12
-6 -9 3 -16 11 -16 16 0 13 23 5 28 -10z m22 -53 c0 -6 -4 -7 -10 -4 -5 3 -10
11 -10 16 0 6 5 7 10 4 6 -3 10 -11 10 -16z m-5190 -19 c0 -5 -4 -10 -10 -10
-5 0 -10 5 -10 10 0 6 5 10 10 10 6 0 10 -4 10 -10z m4200 -4 c0 -3 -21 -18
-47 -36 l-48 -30 39 35 c35 31 56 43 56 31z m-4202 -37 c-20 -13 -28 -11 -22
5 3 8 12 12 21 9 12 -5 12 -7 1 -14z m3957 1 c10 -11 16 -20 13 -20 -3 0 -13
9 -23 20 -10 11 -16 20 -13 20 3 0 13 -9 23 -20z m1237 -15 c0 -5 -5 -11 -11
-13 -6 -2 -11 4 -11 13 0 9 5 15 11 13 6 -2 11 -8 11 -13z m-4425 -50 c9 -19
23 -35 30 -35 15 0 18 26 3 35 -5 3 -10 14 -9 23 0 14 3 13 16 -5 20 -29 33
-29 33 -1 0 21 0 21 21 2 14 -12 32 -18 57 -16 37 3 132 19 165 28 13 4 17 -1
17 -25 0 -33 -8 -38 -29 -18 -11 10 -11 8 -1 -11 15 -30 5 -40 -18 -19 -32 29
-36 19 -7 -19 40 -52 23 -53 -28 0 -24 25 -49 46 -56 46 -15 0 -8 -12 41 -71
52 -64 48 -70 -13 -15 -28 25 -56 46 -61 46 -12 0 0 -16 54 -77 21 -24 38 -48
38 -54 0 -6 -15 7 -32 28 -37 44 -77 78 -84 70 -3 -3 10 -22 28 -43 31 -37 30
-37 -22 9 -99 85 -89 53 19 -65 104 -112 87 -112 -24 0 -52 53 -97 93 -101 89
-11 -10 22 -53 108 -143 44 -46 74 -85 69 -89 -6 -3 -25 11 -43 32 -53 62
-129 135 -135 130 -7 -7 78 -117 128 -167 22 -21 39 -41 39 -44 0 -20 -28 6
-105 97 -48 56 -105 118 -126 137 -22 19 -39 42 -39 50 0 8 -9 32 -20 53 -25
46 -9 49 19 3 34 -54 68 -57 39 -3 -10 20 -10 21 5 8 14 -11 17 -11 17 0 0 8
-7 26 -14 42 -8 15 -11 27 -5 27 5 0 17 -16 26 -35z m-737 10 c0 -8 -4 -15 -8
-15 -5 0 -9 7 -9 15 0 8 4 15 9 15 4 0 8 -7 8 -15z m300 -45 c0 -5 -2 -10 -4
-10 -3 0 -8 5 -11 10 -3 6 -1 10 4 10 6 0 11 -4 11 -10z m354 -81 c20 -43 165
-217 235 -283 37 -35 39 -46 9 -39 -13 3 -58 40 -100 81 -43 42 -80 73 -84 69
-7 -7 -2 -15 65 -94 24 -29 38 -53 32 -53 -6 0 -11 4 -11 8 0 4 -29 32 -64 62
-35 30 -62 58 -59 63 3 5 -4 4 -16 -2 -24 -13 -26 -9 -9 19 10 16 10 24 0 38
-7 9 -15 24 -18 32 -3 8 -22 27 -41 43 -24 17 -30 27 -20 27 24 0 32 -4 30
-12 -2 -5 1 -8 7 -8 12 0 76 -92 72 -105 -2 -5 2 -4 9 3 11 10 20 5 51 -25 21
-20 41 -34 44 -30 10 10 -44 77 -69 86 -12 5 -33 31 -47 59 -24 50 -70 86 -78
63 -7 -20 -17 -12 -18 14 -2 27 6 31 24 13 18 -18 26 -1 13 29 -11 27 -11 27
5 8 9 -11 26 -41 38 -66z m-324 14 c0 -22 -8 -14 -19 20 -10 29 -9 30 4 13 8
-11 15 -26 15 -33z m4714 21 c10 -4 16 -18 16 -36 0 -23 -4 -28 -17 -25 -10 3
-35 8 -55 12 -23 3 -38 12 -38 20 0 27 55 44 94 29z m-831 -32 c34 -36 35 -73
1 -118 -30 -38 -60 -44 -100 -18 -59 40 -59 105 2 144 41 26 66 24 97 -8z
m194 -14 c11 -13 18 -56 15 -89 -2 -19 -46 -43 -82 -45 -39 -2 -60 31 -60 93
0 42 4 55 18 59 9 3 24 9 32 14 16 8 59 -9 77 -32z m91 28 c-18 -13 -25 -36
-11 -36 3 0 21 11 39 25 27 20 44 25 93 25 61 0 71 -6 49 -28 -6 -6 -8 -15 -4
-19 4 -4 15 1 24 13 15 18 25 20 90 15 69 -6 74 -8 90 -36 9 -16 20 -32 24
-35 3 -3 8 -25 10 -49 2 -31 -1 -45 -11 -49 -10 -3 -12 0 -8 12 4 9 2 16 -3
16 -6 0 -10 -8 -10 -17 -1 -16 -2 -16 -16 2 -14 19 -16 19 -25 3 -8 -15 -24
-18 -79 -18 -55 0 -71 4 -80 18 -8 12 -13 13 -16 5 -3 -7 -12 -13 -19 -13 -7
0 -16 6 -18 13 -4 9 -8 9 -15 -2 -8 -10 -11 -11 -17 -1 -6 10 -11 8 -22 -6
-11 -15 -15 -16 -22 -5 -5 7 -13 11 -19 7 -13 -8 -36 20 -27 34 3 5 13 10 21
10 8 0 14 5 14 11 0 5 -10 9 -22 7 -28 -4 -36 22 -9 29 31 8 26 24 -6 21 -25
-3 -28 1 -31 30 -3 29 -1 32 25 32 25 -1 26 -2 11 -14z m785 -3 c-7 -2 -19 -2
-25 0 -7 3 -2 5 12 5 14 0 19 -2 13 -5z m-51 -21 c-7 -2 -12 -11 -12 -19 0
-12 3 -13 13 -4 14 11 27 5 27 -11 0 -5 -4 -6 -10 -3 -6 4 -10 -9 -10 -30 0
-28 -4 -36 -14 -32 -9 4 -13 0 -11 -11 2 -9 4 -20 4 -24 1 -5 8 -8 16 -8 10 0
15 10 16 28 0 15 3 21 6 13 4 -11 7 -11 14 0 4 7 11 10 15 6 4 -3 1 -13 -6
-22 -7 -8 -10 -22 -6 -31 4 -11 1 -14 -12 -10 -10 3 -50 6 -90 7 -40 1 -72 4
-72 7 0 6 23 74 27 81 5 9 28 -26 28 -44 0 -11 8 -21 18 -23 19 -4 25 32 7 43
-19 12 -10 22 15 17 20 -3 25 0 25 16 0 30 -36 48 -49 25 -9 -15 -10 -15 -11
-2 0 16 59 48 75 40 5 -2 4 -6 -3 -9z m-6105 -24 c-3 -8 -6 -5 -6 6 -1 11 2
17 5 13 3 -3 4 -12 1 -19z m6173 12 c0 -5 -8 -10 -17 -10 -15 0 -16 2 -3 10
19 12 20 12 20 0z m35 -90 c3 -6 -1 -7 -9 -4 -18 7 -21 14 -7 14 6 0 13 -4 16
-10z m-4700 -58 c-3 -3 -6 -3 -7 -1 -2 2 -14 18 -28 34 l-25 30 32 -29 c18
-16 31 -32 28 -34z m-87 23 c-3 -3 -9 2 -12 12 -6 14 -5 15 5 6 7 -7 10 -15 7
-18z m4812 -20 c0 -2 -9 -3 -19 -2 -11 0 -18 5 -15 9 4 6 34 0 34 -7z m-4749
-72 c19 -21 23 -29 9 -18 -48 39 -64 55 -54 55 6 0 26 -17 45 -37z m86 -16
c13 -10 21 -23 17 -28 -9 -14 -54 33 -53 56 0 14 2 16 6 5 4 -8 17 -23 30 -33z
m4647 1 c-3 -5 -9 -6 -14 -3 -4 3 -10 -1 -13 -7 -2 -7 -8 -10 -12 -6 -11 11 4
27 25 25 10 -1 16 -5 14 -9z m-4809 -28 c3 -5 1 -10 -4 -10 -6 0 -11 5 -11 10
0 6 2 10 4 10 3 0 8 -4 11 -10z m220 -26 c20 -15 20 -16 -4 -12 -14 2 -26 9
-29 16 -5 16 9 15 33 -4z m2930 -14 c-10 -11 -22 -20 -28 -20 -5 0 1 9 14 20
31 25 37 25 14 0z m1115 -54 c0 -79 -7 -85 -12 -11 -3 50 -3 50 -38 50 -32 0
-35 -2 -31 -25 7 -44 6 -55 -4 -55 -5 0 -9 12 -7 27 2 14 -2 29 -7 33 -7 4
-11 -7 -11 -29 0 -20 -4 -36 -10 -36 -5 0 -10 16 -10 35 0 22 -6 38 -15 41
-20 8 -19 32 2 36 9 2 45 3 80 3 l63 0 0 -69z m86 56 c7 -4 11 -21 11 -39 -2
-37 -17 -34 -17 3 0 19 -5 25 -17 22 -13 -2 -19 -15 -21 -48 -5 -71 -22 -73
-22 -3 0 56 2 62 23 66 12 2 24 5 27 5 3 1 10 -2 16 -6z m264 -7 c0 -9 -8 -19
-17 -22 -10 -4 -21 -11 -25 -16 -3 -6 -5 1 -5 15 1 16 7 24 15 21 6 -3 12 0
12 6 0 6 5 11 10 11 6 0 10 -7 10 -15z m-3134 -32 c17 -22 29 -51 30 -73 2
-41 10 -92 18 -117 3 -10 1 -25 -4 -33 -7 -12 -12 -7 -25 23 -9 21 -13 42 -11
46 3 5 0 34 -6 65 -9 42 -16 56 -29 56 -10 0 -21 5 -24 10 -4 6 -15 0 -26 -14
-12 -15 -26 -23 -34 -19 -8 3 -15 0 -15 -7 0 -7 -7 -10 -15 -6 -8 3 -15 1 -15
-5 0 -6 -9 -8 -21 -4 -14 5 -25 1 -33 -10 -7 -10 -21 -19 -32 -20 -31 -4 -64
-17 -64 -25 0 -5 8 -6 19 -3 23 6 30 -12 41 -107 4 -41 11 -82 14 -91 5 -11 1
-19 -10 -23 -24 -9 -40 9 -43 46 -4 77 -17 142 -29 146 -10 3 -11 -10 -6 -60
3 -34 10 -81 14 -103 9 -38 -1 -67 -16 -52 -4 4 -11 55 -17 113 -9 100 -8 108
9 121 18 13 17 14 -8 8 -18 -5 -28 -3 -28 4 0 6 -14 2 -32 -9 -18 -11 -43 -20
-55 -20 -12 0 -26 -8 -32 -17 -5 -9 -35 -25 -68 -35 -60 -18 -214 -71 -223
-76 -6 -4 -1 -149 6 -184 5 -25 3 -28 -20 -28 -26 0 -36 23 -16 35 13 8 13 25
-1 25 -5 0 -7 -4 -4 -10 3 -5 2 -10 -4 -10 -5 0 -11 23 -13 50 -4 62 -17 68
-33 15 l-11 -40 -12 36 c-7 20 -24 51 -37 69 -39 53 -34 60 31 45 61 -14 94
-10 94 11 0 10 -13 14 -44 14 -25 0 -47 4 -50 9 -3 5 -14 7 -24 4 -10 -2 -24
3 -31 11 -8 9 -20 16 -27 16 -8 0 -14 4 -14 9 0 6 12 6 30 1 17 -5 30 -6 30
-3 0 3 7 0 15 -7 8 -6 19 -9 24 -6 5 4 35 2 67 -2 41 -7 71 -6 107 4 54 14
169 60 202 81 11 7 90 35 175 64 85 28 162 57 171 65 8 8 21 14 27 14 11 0 21
4 72 31 27 14 37 10 66 -28z m2923 0 c-1 -21 -5 -49 -9 -63 -6 -19 -8 -9 -9
38 -1 35 3 62 9 62 6 0 10 -17 9 -37z m48 5 c-3 -7 -5 -2 -5 12 0 14 2 19 5
13 2 -7 2 -19 0 -25z m-4450 -10 c-3 -8 -6 -5 -6 6 -1 11 2 17 5 13 3 -3 4
-12 1 -19z m4653 12 c0 -5 -5 -10 -11 -10 -5 0 -7 5 -4 10 3 6 8 10 11 10 2 0
4 -4 4 -10z m107 -42 c-2 -13 -4 -5 -4 17 -1 22 1 32 4 23 2 -10 2 -28 0 -40z
m-4677 33 c0 -6 -4 -13 -10 -16 -5 -3 -10 1 -10 9 0 9 5 16 10 16 6 0 10 -4
10 -9z m-272 -26 c-3 -3 -9 2 -12 12 -6 14 -5 15 5 6 7 -7 10 -15 7 -18z m312
15 c0 -5 -4 -10 -10 -10 -5 0 -10 5 -10 10 0 6 5 10 10 10 6 0 10 -4 10 -10z
m-105 -10 c-3 -5 -14 -10 -23 -9 -14 0 -13 2 3 9 27 11 27 11 20 0z m355 -7
c0 -10 13 -45 30 -78 16 -33 30 -64 30 -68 0 -5 18 -47 41 -95 81 -173 90
-202 63 -202 -10 0 -14 3 -11 7 11 11 -13 32 -31 27 -9 -2 -7 1 6 7 12 7 22
16 22 21 0 5 -9 4 -19 -2 -24 -12 -35 1 -26 31 5 15 4 19 -4 15 -6 -4 -11 -1
-12 6 0 10 -2 10 -6 1 -7 -18 -20 -16 -20 2 0 8 6 15 14 15 7 0 13 4 13 9 0 5
-13 9 -30 9 -23 -1 -28 -4 -19 -14 7 -9 7 -19 -1 -35 -10 -17 -9 -24 3 -36 11
-12 16 -12 22 -2 5 8 4 10 -3 5 -7 -4 -12 -2 -12 4 0 7 6 10 13 7 6 -2 11 -10
10 -16 -2 -6 5 -11 15 -11 14 0 15 -2 2 -10 -8 -5 -17 -6 -20 -2 -8 11 -55 7
-53 -4 1 -5 -7 -10 -18 -10 -18 0 -18 2 5 19 25 18 25 19 9 44 -13 20 -14 26
-3 33 18 11 23 47 7 56 -6 4 -9 4 -5 -1 11 -12 -11 -35 -34 -35 -15 0 -18 -5
-14 -17 6 -14 3 -14 -15 3 l-21 19 21 3 c19 3 26 14 22 36 -1 5 5 6 13 3 9 -4
18 -1 22 5 4 6 3 8 -3 5 -13 -8 -26 20 -17 35 4 6 10 5 15 -3 4 -7 11 -10 16
-6 10 11 -17 27 -34 20 -7 -3 -13 -14 -13 -24 0 -14 -6 -18 -25 -17 -26 2 -36
28 -10 28 8 0 15 4 15 9 0 5 -10 7 -22 3 -15 -4 -19 -2 -13 7 4 7 19 11 34 9
26 -4 26 -3 17 28 -6 18 -14 30 -19 27 -4 -2 -5 -13 -2 -23 5 -14 1 -18 -14
-17 -11 0 -23 10 -26 22 -4 12 -8 15 -12 8 -7 -19 -40 -16 -48 4 -3 10 -1 19
4 21 13 4 5 22 -10 22 -5 0 -9 -7 -9 -15 0 -8 -7 -15 -15 -15 -11 0 -14 -7
-10 -27 3 -16 2 -22 -1 -15 -3 6 -9 10 -14 7 -4 -3 -6 4 -3 15 3 12 0 20 -6
20 -7 0 -10 4 -7 9 3 5 15 7 25 4 16 -4 19 -1 14 18 -4 14 -2 20 4 16 15 -10
35 17 27 37 -5 13 -2 15 12 10 11 -4 16 -4 12 0 -3 4 -21 9 -40 11 -18 2 -25
1 -15 -1 9 -3 15 -10 12 -15 -4 -5 -1 -9 6 -9 7 0 10 -3 7 -6 -4 -3 -8 -5 -10
-4 -1 1 -16 -3 -31 -9 -22 -9 -28 -8 -24 1 2 7 10 12 16 11 13 -3 15 10 4 21
-5 4 -8 13 -8 19 -1 7 -6 11 -13 10 -7 -2 -12 1 -12 5 0 4 54 9 120 10 110 3
120 1 120 -15z m-547 -34 c21 -1 25 -3 12 -6 -11 -3 -24 -9 -29 -14 -15 -14
-35 9 -28 34 5 18 7 19 10 5 2 -12 14 -18 35 -19z m-106 -11 c-3 -7 -5 -2 -5
12 0 14 2 19 5 13 2 -7 2 -19 0 -25z m303 22 c0 -5 -2 -10 -4 -10 -3 0 -8 5
-11 10 -3 6 -1 10 4 10 6 0 11 -4 11 -10z m126 -17 c-2 -3 -10 -5 -18 -7 -7
-1 -19 -5 -25 -9 -16 -10 -5 24 11 35 10 7 40 -11 32 -19z m4434 -4 c0 -10 -4
-19 -8 -19 -4 0 -8 11 -8 24 0 14 4 22 8 20 4 -3 8 -14 8 -25z m-4645 11 c-3
-5 -10 -10 -16 -10 -5 0 -9 5 -9 10 0 6 7 10 16 10 8 0 12 -4 9 -10z m1526
-71 c5 -35 10 -71 12 -79 1 -8 -2 -17 -8 -20 -5 -3 -16 15 -23 40 -8 25 -18
60 -24 78 -7 24 -6 37 3 48 18 22 29 4 40 -67z m3023 56 c-4 -8 -8 -15 -10
-15 -2 0 -4 7 -4 15 0 8 4 15 10 15 5 0 7 -7 4 -15z m-3083 -22 c1 -30 8 -81
18 -125 7 -29 6 -46 -1 -55 -10 -13 -22 -10 -24 5 0 4 -3 18 -7 32 -3 14 -8
55 -11 93 -4 54 -3 67 9 67 8 0 15 -8 16 -17z m-1335 -18 c-9 -9 -16 -13 -16
-8 0 4 -5 1 -10 -7 -7 -11 -12 -12 -21 -3 -16 16 -1 35 21 28 10 -3 21 -1 25
5 4 6 9 9 12 6 3 -3 -2 -12 -11 -21z m1293 -71 c4 -44 10 -85 12 -92 2 -8 -4
-19 -14 -25 -22 -15 -37 4 -37 50 0 17 -5 55 -12 83 -11 48 -10 54 7 66 28 21
36 6 44 -82z m207 61 c17 -43 17 -45 -1 -45 -14 0 -36 57 -28 73 8 13 14 7 29
-28z m2612 18 c-10 -2 -28 -2 -40 0 -13 2 -5 4 17 4 22 1 32 -1 23 -4z m-5291
-25 c-3 -8 -6 -5 -6 6 -1 11 2 17 5 13 3 -3 4 -12 1 -19z m870 8 c-3 -7 -2
-17 3 -22 13 -15 40 -85 30 -79 -30 19 -57 115 -33 115 3 0 3 -6 0 -14z m1517
-17 c3 -17 6 -44 6 -59 0 -15 7 -47 15 -70 12 -33 12 -46 3 -57 -9 -12 -13 -9
-23 15 -17 39 -38 169 -31 187 9 25 23 17 30 -16z m1371 21 c3 -5 -1 -10 -10
-10 -9 0 -13 5 -10 10 3 6 8 10 10 10 2 0 7 -4 10 -10z m-2525 -21 c0 -4 -7
-6 -15 -3 -8 4 -15 10 -15 15 0 4 7 6 15 3 8 -4 15 -10 15 -15z m2496 -16 c19
-20 33 -38 31 -39 -2 -2 -21 -6 -42 -10 -21 -3 -50 -10 -64 -16 -14 -6 -42
-12 -61 -15 -19 -3 -39 -9 -44 -14 -24 -22 -56 -9 -76 31 -25 49 -25 50 5 50
13 0 42 7 62 15 21 8 63 19 93 24 30 5 56 9 58 10 2 0 19 -15 38 -36z m90 6
c9 -15 -23 -10 -35 5 -10 12 -8 13 9 9 11 -3 23 -9 26 -14z m-2831 -19 c-3 -4
1 -11 7 -13 10 -4 10 -8 -1 -15 -15 -11 -6 -34 12 -30 24 4 56 -13 50 -27 -3
-10 5 -18 22 -25 14 -5 24 -14 21 -19 -10 -15 73 -18 97 -3 12 7 14 11 5 8
-12 -3 -15 -1 -11 10 4 10 -2 14 -22 14 -17 0 -25 4 -22 13 2 6 10 11 16 10
14 -4 14 20 -1 35 -8 8 -5 14 15 21 37 14 60 5 47 -19 -14 -27 -12 -40 5 -40
9 0 18 -7 21 -15 4 -8 10 -12 16 -9 5 3 0 15 -12 26 -12 11 -19 23 -16 26 10
10 47 -32 43 -48 -3 -12 4 -15 30 -14 34 1 61 -25 35 -34 -7 -2 -10 -8 -6 -13
3 -5 -1 -9 -8 -9 -10 0 -9 -3 2 -11 11 -8 8 -9 -13 -4 -20 4 -27 2 -22 -6 4
-6 19 -9 36 -5 15 3 31 1 34 -4 3 -6 15 -10 25 -10 11 0 25 -10 31 -22 7 -13
16 -26 22 -29 5 -4 5 -9 -2 -13 -6 -4 -11 -2 -11 3 0 6 -5 11 -11 11 -5 0 -7
-5 -3 -12 5 -8 2 -9 -9 -5 -10 3 -17 5 -17 3 0 -3 -3 -13 -6 -23 -5 -15 -4
-16 6 -3 9 11 13 12 17 2 2 -6 9 -10 14 -6 5 3 9 1 9 -5 0 -10 -22 -15 -100
-24 -35 -5 -69 7 -82 27 -5 7 -8 6 -8 -3 0 -11 -4 -11 -22 1 -13 8 -45 22 -71
32 -26 10 -59 30 -73 45 -62 65 -142 276 -93 245 5 -3 7 -9 4 -14z m3553 -3
c2 -10 -4 -20 -13 -23 -21 -9 -28 0 -20 26 8 24 28 22 33 -3z m1242 13 c0 -5
-8 -10 -17 -10 -15 0 -16 2 -3 10 19 12 20 12 20 0z m-4755 -10 c3 -5 2 -10
-4 -10 -5 0 -13 5 -16 10 -3 6 -2 10 4 10 5 0 13 -4 16 -10z m61 -27 c-7 -7
-26 7 -26 19 0 6 6 6 15 -2 9 -7 13 -15 11 -17z m1120 16 c3 -6 8 -46 10 -88
2 -42 6 -88 9 -102 5 -19 1 -28 -11 -33 -23 -9 -32 8 -32 63 0 25 -1 48 -2 51
-6 19 -10 95 -6 106 6 17 22 18 32 3z m1221 -11 c-3 -8 -6 -5 -6 6 -1 11 2 17
5 13 3 -3 4 -12 1 -19z m-2283 -3 c-3 -6 -11 -12 -18 -12 -8 0 -12 6 -10 12 3
6 11 12 18 12 8 0 12 -6 10 -12z m2225 0 c-18 -19 -143 -33 -153 -17 -4 6 21
14 66 20 110 14 105 14 87 -3z m751 6 c0 -5 -15 -24 -33 -42 -17 -19 -49 -56
-71 -82 -21 -27 -56 -60 -79 -74 -41 -26 -157 -65 -192 -64 -11 0 -45 -6 -75
-13 -73 -19 -189 -19 -240 -1 -22 8 -42 15 -45 15 -24 3 -95 32 -95 39 0 3 73
6 162 6 l163 0 125 43 c157 54 180 65 257 119 78 55 123 74 123 54z m-3086
-22 c-3 -5 -10 -7 -15 -3 -5 3 -7 10 -3 15 3 5 10 7 15 3 5 -3 7 -10 3 -15z
m343 -4 c9 -25 -4 -29 -17 -6 -7 15 -7 21 0 21 6 0 13 -7 17 -15z m778 -107
c5 -70 4 -108 -3 -108 -14 0 -22 51 -22 148 0 119 16 93 25 -40z m1801 111 c3
-5 -1 -9 -9 -9 -8 0 -17 -7 -21 -15 -3 -8 -12 -15 -20 -15 -8 0 -16 -6 -19
-12 -5 -15 -38 0 -45 20 -8 24 100 53 114 31z m-2831 -27 c-3 -3 -11 0 -18 7
-9 10 -8 11 6 5 10 -3 15 -9 12 -12z m981 -22 c2 -19 5 -70 7 -112 3 -43 2
-78 -3 -78 -12 0 -18 24 -25 100 -3 36 -8 80 -12 98 -5 29 -3 33 13 30 13 -2
19 -13 20 -38z m-1014 13 c-6 -2 -9 -10 -6 -15 4 -7 2 -8 -4 -4 -18 11 -14 26
6 25 10 0 12 -3 4 -6z m2695 -15 c28 -26 29 -38 5 -38 -10 0 -22 -4 -27 -9 -6
-5 -28 -12 -50 -16 -32 -5 -44 -2 -57 12 -33 36 -26 47 37 59 33 7 62 12 64
13 3 1 15 -9 28 -21z m-2462 2 c3 -5 2 -10 -4 -10 -5 0 -13 5 -16 10 -3 6 -2
10 4 10 5 0 13 -4 16 -10z m730 -67 c3 -43 8 -92 11 -109 3 -23 0 -33 -12 -38
-22 -8 -27 -2 -31 37 -1 17 -6 64 -11 102 -7 49 -6 72 2 77 27 18 34 6 41 -69z
m2518 57 c3 -13 0 -20 -9 -20 -8 0 -14 9 -14 20 0 11 4 20 9 20 5 0 11 -9 14
-20z m-43 0 c0 -5 -4 -10 -10 -10 -5 0 -10 5 -10 10 0 6 5 10 10 10 6 0 10 -4
10 -10z m-3392 -25 c-3 -3 -9 2 -12 12 -6 14 -5 15 5 6 7 -7 10 -15 7 -18z
m856 -17 c15 -124 14 -167 -3 -182 -10 -9 -24 -16 -32 -16 -10 0 -11 2 -2 8 7
5 11 38 11 92 -1 122 1 140 11 140 6 0 12 -19 15 -42z m1633 -33 c-6 -16 -65
-26 -140 -23 -64 3 -72 5 -75 24 -3 18 7 23 85 41 l88 20 22 -26 c13 -14 21
-30 20 -36z m-2197 49 c0 -8 -19 -13 -24 -6 -3 5 1 9 9 9 8 0 15 -2 15 -3z
m509 -57 c-1 -29 -5 -61 -9 -72 -4 -11 -3 -31 2 -44 12 -32 3 -38 -18 -13 -14
16 -17 37 -15 99 2 72 13 99 33 87 5 -3 8 -29 7 -57z m-74 -57 c0 -50 -3 -90
-7 -90 -5 0 -8 10 -8 22 0 12 -5 48 -12 80 -10 50 -10 61 2 68 8 6 17 10 20
10 3 0 5 -41 5 -90z m1503 54 c-13 -13 -27 -15 -62 -10 -62 10 -66 23 -9 31
27 4 53 8 58 10 20 6 29 -15 13 -31z m-872 17 c-6 -9 -46 -22 -46 -15 0 3 10
9 23 14 29 11 29 11 23 1z m2094 -1 c0 -5 -7 -10 -15 -10 -8 0 -15 5 -15 10 0
6 7 10 15 10 8 0 15 -4 15 -10z m36 -17 c-10 -10 -19 5 -10 18 6 11 8 11 12 0
2 -7 1 -15 -2 -18z m-2191 -12 c-3 -6 -14 -11 -23 -11 -15 1 -15 2 2 15 21 16
32 13 21 -4z m-955 -21 c0 -5 -7 -7 -15 -4 -8 4 -12 10 -9 15 6 11 24 2 24
-11z m3051 -43 c-13 -13 -26 -3 -16 12 3 6 11 8 17 5 6 -4 6 -10 -1 -17z m109
-7 c-20 -13 -50 -13 -50 0 0 6 15 10 33 10 24 0 28 -3 17 -10z m-3102 -24 c0
-19 -3 -22 -13 -13 -9 8 -10 16 -3 25 14 17 16 16 16 -12z m3022 -10 c0 -8 -4
-17 -9 -20 -10 -7 -23 19 -14 28 11 11 23 6 23 -8z m96 -11 c-22 -17 -56 -20
-56 -6 0 8 19 14 65 19 6 1 1 -5 -9 -13z m-2996 -5 c0 -5 -5 -10 -11 -10 -5 0
-7 5 -4 10 3 6 8 10 11 10 2 0 4 -4 4 -10z m-90 -8 c0 -4 -10 -9 -22 -9 -18
-2 -20 0 -8 7 18 12 30 13 30 2z m1800 -20 c-7 -3 -19 3 -28 13 -16 15 -15 16
12 4 15 -7 23 -15 16 -17z m1214 -23 c-3 -6 -1 -15 6 -19 7 -4 8 -10 3 -13 -6
-4 -15 5 -21 18 -10 21 -9 25 4 25 9 0 12 -5 8 -11z m44 -60 c-2 -6 -8 -10
-13 -10 -5 0 -11 4 -13 10 -2 6 4 11 13 11 9 0 15 -5 13 -11z m-2019 -354 c0
-5 -6 -1 -14 9 -8 11 -15 27 -15 35 1 17 29 -26 29 -44z m2271 -2103 c0 -5
-69 -14 -152 -20 -84 -7 -178 -15 -208 -17 -46 -4 -51 -3 -30 6 56 25 390 51
390 31z m54 -6 c-10 -8 -21 -12 -24 -10 -5 6 21 24 34 24 6 0 1 -6 -10 -14z
m104 9 c-9 -10 -80 -16 -74 -7 2 4 22 9 42 10 21 2 36 0 32 -3z m239 -61 c-3
-3 -12 -4 -19 -1 -8 3 -5 6 6 6 11 1 17 -2 13 -5z m-454 -11 c-7 -2 -19 -2
-25 0 -7 3 -2 5 12 5 14 0 19 -2 13 -5z m184 -19 c-3 -3 -12 -4 -19 -1 -8 3
-5 6 6 6 11 1 17 -2 13 -5z m138 -14 c3 -6 -1 -7 -9 -4 -18 7 -21 14 -7 14 6
0 13 -4 16 -10z m58 3 c-7 -2 -21 -2 -30 0 -10 3 -4 5 12 5 17 0 24 -2 18 -5z
m-498 -13 c-3 -5 -11 -10 -16 -10 -6 0 -7 5 -4 10 3 6 11 10 16 10 6 0 7 -4 4
-10z m68 3 c-7 -2 -19 -2 -25 0 -7 3 -2 5 12 5 14 0 19 -2 13 -5z m513 -1 c7
-4 8 -15 3 -27 -6 -16 -8 -17 -8 -3 -1 9 -9 22 -18 27 -14 8 -15 10 -3 11 8 0
20 -4 26 -8z m-31 -32 c3 -5 2 -10 -4 -10 -5 0 -13 5 -16 10 -3 6 -2 10 4 10
5 0 13 -4 16 -10z m137 -22 c-30 -12 -46 -10 -33 5 6 8 8 17 5 20 -4 4 5 1 19
-6 22 -10 24 -13 9 -19z m-405 16 c-3 -3 -12 -4 -19 -1 -8 3 -5 6 6 6 11 1 17
-2 13 -5z m348 -21 c-1 -26 -4 -27 -50 -28 -28 0 -56 -4 -62 -8 -8 -5 -23 -1
-35 7 -12 9 -18 16 -12 16 5 0 16 -6 23 -12 11 -10 14 -10 18 0 3 7 23 12 53
12 39 0 49 4 53 20 7 29 14 25 12 -7z m180 -3 c3 -5 -1 -10 -10 -10 -9 0 -13
5 -10 10 3 6 8 10 10 10 2 0 7 -4 10 -10z m483 -15 c-3 -3 -9 2 -12 12 -6 14
-5 15 5 6 7 -7 10 -15 7 -18z m-1253 -332 c-11 -3 -26 -10 -33 -15 -9 -8 -11
-7 -6 6 4 10 16 16 33 15 20 -1 22 -2 6 -6z m82 -19 c-3 -3 -12 -4 -19 -1 -8
3 -5 6 6 6 11 1 17 -2 13 -5z m6 -61 c-22 -8 -14 -20 20 -34 17 -7 41 -21 51
-31 17 -15 17 -18 4 -18 -9 0 -23 6 -30 13 -7 8 -39 22 -71 32 -31 10 -57 21
-57 24 0 4 7 17 16 29 15 21 16 21 47 5 18 -9 26 -18 20 -20z m-508 -163 c3
-5 1 -10 -4 -10 -6 0 -11 5 -11 10 0 6 2 10 4 10 3 0 8 -4 11 -10z m630 -16
c17 -14 21 -21 10 -15 -30 14 -61 40 -50 41 6 0 24 -12 40 -26z m-186 -10 c6
-6 -42 -5 -79 2 -19 4 -27 10 -20 14 11 7 89 -5 99 -16z m-292 -10 c-3 -3 -12
-4 -19 -1 -8 3 -5 6 6 6 11 1 17 -2 13 -5z m8 -34 c13 -6 15 -9 5 -9 -8 0 -22
4 -30 9 -18 12 -2 12 25 0z m-280 -20 c-10 -11 -20 -18 -23 -15 -7 6 18 35 31
35 5 0 2 -9 -8 -20z m555 -7 c3 -3 -16 -3 -43 -1 -26 3 -51 8 -55 12 -8 8 90
-3 98 -11z m-350 -34 c32 -11 40 -16 20 -12 -19 3 -44 7 -55 7 -11 1 -24 7
-28 14 -4 6 -17 12 -28 12 -11 0 -17 5 -14 10 4 7 14 6 28 -2 12 -6 47 -20 77
-29z m307 -35 c-3 -3 -12 -4 -19 -1 -8 3 -5 6 6 6 11 1 17 -2 13 -5z m-1347
-368 c0 -3 -4 -8 -10 -11 -5 -3 -10 -1 -10 4 0 6 5 11 10 11 6 0 10 -2 10 -4z
m-90 -246 c0 -5 -4 -10 -10 -10 -5 0 -10 5 -10 10 0 6 5 10 10 10 6 0 10 -4
10 -10z m491 -192 c1 -13 3 -41 5 -63 1 -22 5 -77 8 -122 3 -45 11 -94 16
-110 l10 -28 -19 25 c-46 57 -69 178 -51 263 12 57 29 76 31 35z m-562 -143
c1 -16 -20 23 -29 55 -5 16 -6 39 -2 52 4 17 9 8 18 -37 7 -33 13 -64 13 -70z
m62 -30 c5 -5 9 -13 9 -19 0 -5 -7 -1 -15 10 -8 10 -14 30 -13 44 l1 25 4 -25
c3 -14 9 -29 14 -35z m1213 -127 l48 -63 -51 52 c-43 43 -62 73 -48 73 2 0 25
-28 51 -62z m-14 -38 c0 -5 -2 -10 -4 -10 -3 0 -8 5 -11 10 -3 6 -1 10 4 10 6
0 11 -4 11 -10z"/>
<path d="M3580 7495 c0 -21 30 -31 41 -14 5 10 3 16 -9 21 -27 10 -32 9 -32
-7z"/>
<path d="M3663 7503 c-7 -3 -13 -12 -13 -20 0 -12 7 -14 31 -9 17 3 48 6 67 6
51 0 28 18 -28 23 -25 2 -51 2 -57 0z"/>
<path d="M4250 7390 c0 -5 5 -10 10 -10 6 0 10 5 10 10 0 6 -4 10 -10 10 -5 0
-10 -4 -10 -10z"/>
<path d="M4278 7368 c-19 -19 -13 -24 11 -9 7 5 12 13 10 18 -2 5 -12 1 -21
-9z"/>
<path d="M4266 7284 c-5 -12 -2 -15 10 -10 8 3 18 6 20 6 3 0 2 5 -1 10 -9 15
-22 12 -29 -6z"/>
<path d="M4188 7213 c7 -3 16 -2 19 1 4 3 -2 6 -13 5 -11 0 -14 -3 -6 -6z"/>
<path d="M4250 7209 c0 -5 5 -7 10 -4 6 3 10 8 10 11 0 2 -4 4 -10 4 -5 0 -10
-5 -10 -11z"/>
<path d="M4105 7150 c-3 -5 -1 -10 4 -10 6 0 11 5 11 10 0 6 -2 10 -4 10 -3 0
-8 -4 -11 -10z"/>
<path d="M5686 7268 c-66 -50 -83 -78 -47 -78 10 0 24 -7 31 -16 7 -8 50 -42
95 -74 45 -33 90 -70 98 -84 16 -24 16 -25 -56 -80 -72 -56 -86 -57 -87 -10 0
25 -33 62 -67 75 -36 14 -110 11 -141 -5 -71 -38 -193 -194 -207 -265 -2 -9
-19 -70 -38 -136 -19 -66 -40 -163 -47 -215 -7 -52 -17 -101 -24 -109 -8 -11
-8 -15 1 -18 11 -4 11 -49 -1 -193 -3 -38 1 -79 17 -147 3 -13 72 -83 81 -83
3 0 2 8 -1 18 -5 12 3 10 30 -11 54 -41 100 -32 159 31 77 84 94 145 97 355 1
88 9 198 17 245 9 48 17 101 20 117 2 17 24 71 49 121 25 49 45 95 45 101 0 6
7 13 15 16 8 4 47 33 88 67 40 33 83 60 95 60 15 0 22 6 22 18 0 16 76 71 84
61 2 -2 23 -34 48 -70 l46 -66 -41 -41 c-23 -23 -38 -45 -34 -49 4 -3 24 10
45 30 21 20 43 37 49 37 27 0 18 33 -27 101 -30 46 -45 78 -39 84 15 15 38 -5
68 -60 20 -36 33 -49 47 -47 10 1 45 5 76 9 82 8 88 20 48 94 -34 63 -33 65 2
83 12 6 23 17 26 25 3 10 -4 12 -38 6 -35 -6 -45 -4 -66 16 -14 13 -34 38 -45
56 -30 48 -66 45 -108 -7 -26 -33 -36 -39 -57 -34 -36 9 -31 -13 13 -58 31
-32 35 -40 23 -48 -22 -14 -25 -13 -53 24 -50 65 -123 128 -219 188 -26 17
-27 17 -92 -34z m120 -25 c71 -53 112 -92 145 -142 17 -24 29 -44 27 -45 -2
-2 -18 -13 -36 -25 l-34 -23 -36 34 c-20 20 -64 54 -97 76 -33 23 -73 52 -88
65 l-28 24 40 36 c23 20 45 37 50 37 4 0 30 -16 57 -37z m375 -44 c16 -17 29
-35 29 -39 0 -5 -28 -17 -62 -29 l-63 -20 -17 20 c-23 27 -23 36 0 43 11 4 29
18 42 31 30 32 36 31 71 -6z m90 -140 c17 -34 27 -65 22 -69 -4 -4 -33 -11
-63 -14 l-55 -6 -33 51 c-23 35 -30 55 -23 62 8 8 88 34 113 36 4 1 22 -27 39
-60z m-657 -374 c-6 -16 -24 -21 -24 -7 0 11 11 22 21 22 5 0 6 -7 3 -15z
m-62 -207 c-7 -7 -12 -8 -12 -2 0 14 12 26 19 19 2 -3 -1 -11 -7 -17z m-8
-181 c4 -19 3 -26 -4 -22 -5 3 -10 18 -10 32 0 32 5 28 14 -10z m22 -124 c-7
-7 -26 7 -26 19 0 6 6 6 15 -2 9 -7 13 -15 11 -17z m-72 -237 c-3 -9 -10 -13
-16 -10 -5 3 -4 12 3 20 15 18 22 13 13 -10z m-34 -52 c0 -8 -5 -12 -10 -9 -6
4 -8 11 -5 16 9 14 15 11 15 -7z"/>
<path d="M5100 7239 c-73 -17 -77 -19 -150 -96 -58 -61 -86 -100 -124 -178
-95 -191 -124 -285 -125 -405 -1 -52 -6 -122 -12 -155 -13 -68 -17 -365 -6
-408 4 -16 15 -40 23 -53 9 -13 13 -31 10 -40 -4 -11 -1 -14 13 -9 10 3 24 -1
31 -10 27 -32 70 -46 145 -46 84 0 122 15 155 61 29 41 70 173 70 225 0 23 6
86 14 141 8 54 19 140 26 189 14 97 54 224 94 295 14 25 48 72 76 105 27 33
62 80 78 104 15 24 35 53 45 63 17 18 17 21 -9 79 -31 68 -92 129 -130 129
-14 0 -33 4 -42 9 -34 17 -109 18 -182 0z m190 -376 c-1 -14 -70 -88 -70 -76
0 11 57 83 66 83 2 0 4 -3 4 -7z m-97 -168 c-3 -9 -8 -14 -10 -11 -3 3 -2 9 2
15 9 16 15 13 8 -4z m-73 -365 c0 -5 -4 -10 -10 -10 -5 0 -10 5 -10 10 0 6 5
10 10 10 6 0 10 -4 10 -10z"/>
<path d="M5900 6922 c0 -11 78 -104 101 -120 26 -18 24 0 -2 24 -12 10 -35 38
-51 62 -26 38 -48 54 -48 34z"/>
<path d="M5788 6483 c-10 -2 -18 -9 -18 -14 0 -19 145 -32 160 -13 6 7 7 14 3
17 -13 7 -126 15 -145 10z"/>
<path d="M5191 6364 c0 -11 3 -14 6 -6 3 7 2 16 -1 19 -3 4 -6 -2 -5 -13z"/>
<path d="M5684 6357 c-3 -14 -4 -34 -1 -44 4 -14 5 -14 6 5 1 27 21 30 21 2 0
-11 7 -20 15 -20 8 0 15 7 15 16 0 11 6 15 20 11 11 -3 20 -1 20 3 0 16 -19
21 -39 10 -16 -8 -20 -6 -23 12 -4 31 -26 34 -34 5z"/>
<path d="M4560 5836 c0 -2 9 -6 20 -9 11 -3 18 -1 14 4 -5 9 -34 13 -34 5z"/>
<path d="M4565 5801 c-6 -11 13 -26 22 -17 4 3 1 6 -6 6 -7 0 -9 5 -6 10 3 6
4 10 1 10 -3 0 -7 -4 -11 -9z"/>
<path d="M5507 5309 c-9 -5 -22 -7 -27 -4 -14 9 -12 -11 3 -27 39 -40 59 -81
59 -122 1 -30 5 -43 13 -40 6 3 23 0 37 -5 19 -7 31 -6 47 5 28 20 18 34 -25
34 -23 0 -34 5 -34 14 0 8 -9 36 -20 62 l-20 47 21 15 c17 11 18 16 8 23 -18
11 -40 11 -62 -2z"/>
<path d="M5620 5293 c0 -4 11 -19 25 -33 18 -19 26 -40 29 -79 6 -64 12 -73
26 -37 25 66 -7 156 -56 156 -13 0 -24 -3 -24 -7z"/>
<path d="M5441 5241 c-11 -7 -11 -10 1 -17 28 -16 39 -53 32 -99 -4 -28 -2
-45 4 -45 26 0 31 108 6 145 -18 27 -22 29 -43 16z"/>
<path d="M5310 5222 c-30 -24 -42 -94 -24 -138 15 -35 58 -64 94 -64 18 0 21
4 20 28 -1 4 -11 6 -23 4 -32 -4 -55 25 -61 81 -5 35 -2 54 10 73 21 31 13 40
-16 16z"/>
<path d="M5397 5198 c31 -35 42 -61 36 -91 -3 -15 -1 -27 5 -27 23 0 30 67 11
103 -15 27 -28 37 -53 37 -19 0 -19 -1 1 -22z"/>
<path d="M4481 7283 c0 -6 -4 -20 -7 -30 -5 -14 -4 -15 5 -7 7 7 11 20 8 30
-3 11 -5 14 -6 7z"/>
<path d="M4405 7200 c-3 -5 -2 -10 4 -10 5 0 13 5 16 10 3 6 2 10 -4 10 -5 0
-13 -4 -16 -10z"/>
<path d="M7265 6393 c-16 -1 -53 -6 -81 -9 l-51 -5 -11 -77 c-14 -101 -9 -107
78 -97 36 4 76 8 90 9 21 1 25 6 26 36 1 19 4 61 8 93 7 62 11 59 -59 50z m22
-49 c3 -8 1 -33 -6 -53 -10 -34 -16 -39 -49 -45 -73 -12 -75 -11 -67 37 9 52
19 65 53 70 53 8 63 7 69 -9z"/>
<path d="M3510 6891 c0 -5 7 -15 17 -22 15 -13 15 -12 4 9 -12 23 -21 28 -21
13z"/>
<path d="M3890 6660 c0 -5 5 -10 10 -10 6 0 10 5 10 10 0 6 -4 10 -10 10 -5 0
-10 -4 -10 -10z"/>
<path d="M3160 6395 c-10 -12 -8 -13 11 -10 25 5 62 -22 52 -38 -3 -6 -1 -7 6
-3 8 5 5 16 -11 36 -26 33 -40 36 -58 15z"/>
<path d="M3352 6396 c7 -7 19 -11 25 -9 7 3 13 0 13 -7 0 -6 5 -8 10 -5 6 3
10 0 10 -8 0 -7 12 -19 26 -25 14 -7 23 -8 20 -3 -3 5 1 12 10 15 24 9 27 8
21 -14 -4 -18 -2 -20 16 -14 12 3 27 11 32 16 7 7 3 8 -12 3 -15 -4 -23 -2
-23 5 0 6 5 8 10 5 6 -3 10 -1 10 5 0 7 -6 10 -14 7 -7 -3 -19 0 -25 6 -7 7
-11 8 -11 0 0 -19 -49 -12 -55 8 -4 11 -12 19 -18 20 -7 0 -22 2 -35 5 -19 3
-21 2 -10 -10z"/>
<path d="M3526 6375 c4 -8 10 -15 15 -15 4 0 6 7 3 15 -4 8 -10 15 -15 15 -4
0 -6 -7 -3 -15z"/>
<path d="M3347 6342 c-21 -23 -22 -33 -2 -26 8 4 15 12 15 20 0 8 6 11 17 7
11 -4 14 -3 9 5 -10 17 -20 15 -39 -6z"/>
<path d="M3255 6330 c-3 -6 1 -7 9 -4 18 7 21 14 7 14 -6 0 -13 -4 -16 -10z"/>
<path d="M3519 6310 l-24 -19 23 -1 c12 0 22 4 22 10 0 5 6 7 13 4 8 -3 14 2
14 11 0 21 -20 19 -48 -5z"/>
<path d="M3387 6313 c-4 -3 -7 -11 -7 -17 0 -6 5 -5 12 2 6 6 9 14 7 17 -3 3
-9 2 -12 -2z"/>
<path d="M3410 6306 c0 -3 9 -10 20 -16 11 -6 20 -8 20 -6 0 3 -9 10 -20 16
-11 6 -20 8 -20 6z"/>
<path d="M3540 6283 c0 -10 52 -35 58 -28 2 2 2 11 -1 20 -6 15 -57 22 -57 8z"/>
<path d="M2980 6390 c0 -5 5 -10 10 -10 6 0 10 5 10 10 0 6 -4 10 -10 10 -5 0
-10 -4 -10 -10z"/>
<path d="M2913 6255 c0 -8 4 -12 9 -9 4 3 8 9 8 15 0 5 -4 9 -8 9 -5 0 -9 -7
-9 -15z"/>
<path d="M2885 6203 c-13 -30 -16 -55 -5 -48 5 3 10 15 10 26 0 21 16 26 23 7
4 -8 6 -9 6 -2 1 6 -5 17 -13 23 -11 9 -15 8 -21 -6z"/>
<path d="M2947 6213 c-4 -3 -7 -11 -7 -17 0 -6 5 -5 12 2 6 6 9 14 7 17 -3 3
-9 2 -12 -2z"/>
<path d="M9240 5835 c0 -19 32 -17 36 3 1 7 0 8 -3 2 -3 -8 -9 -7 -19 1 -11 9
-14 8 -14 -6z"/>
<path d="M8710 5796 c-5 -13 -13 -25 -17 -27 -19 -8 -53 -68 -42 -74 6 -4 17
2 25 13 8 12 20 27 27 34 15 16 47 65 47 73 0 16 -32 1 -40 -19z"/>
<path d="M9260 5756 c0 -9 5 -16 10 -16 6 0 10 4 10 9 0 6 -4 13 -10 16 -5 3
-10 -1 -10 -9z"/>
<path d="M9300 5740 c0 -5 5 -10 11 -10 5 0 7 5 4 10 -3 6 -8 10 -11 10 -2 0
-4 -4 -4 -10z"/>
<path d="M9253 5715 c0 -8 9 -15 19 -15 22 0 24 16 2 24 -21 8 -21 8 -21 -9z"/>
<path d="M8278 5248 l-48 -10 2 -42 c2 -70 13 -77 114 -78 49 0 123 1 164 2
41 1 91 -1 111 -5 22 -4 45 -2 57 4 20 11 20 11 -1 66 -18 45 -26 55 -47 56
-14 1 -52 2 -85 4 -33 1 -96 5 -140 7 -44 3 -101 1 -127 -4z m173 -40 l-25 -9
30 -15 c16 -8 33 -19 37 -23 10 -10 -69 -22 -89 -14 -22 8 -7 22 19 17 12 -2
16 -2 10 2 -7 3 -13 14 -13 25 0 14 -7 19 -25 19 -14 0 -25 -4 -25 -10 0 -5 5
-10 10 -10 6 0 3 -11 -6 -25 -20 -31 -34 -24 -34 20 0 38 8 42 84 36 44 -3 48
-5 27 -13z m193 -19 c-3 -5 -12 -9 -20 -9 -8 0 -14 -4 -14 -10 0 -5 11 -10 25
-10 14 0 25 -5 25 -11 0 -14 -73 -4 -78 11 -2 5 -12 10 -23 10 -10 0 -19 6
-19 13 0 9 -10 12 -30 9 -35 -5 -42 15 -7 23 76 17 158 2 141 -26z m-330 15
c13 -35 6 -52 -24 -56 -17 -3 -31 -3 -33 -2 -2 2 -1 19 1 39 3 29 8 35 27 35
13 0 26 -7 29 -16z"/>
<path d="M8580 5200 c0 -5 9 -10 21 -10 11 0 17 5 14 10 -3 6 -13 10 -21 10
-8 0 -14 -4 -14 -10z"/>
<path d="M9276 5243 c-6 -14 -5 -15 5 -6 7 7 10 15 7 18 -3 3 -9 -2 -12 -12z"/>
<path d="M8400 5005 c0 -27 28 -124 39 -137 3 -3 38 -8 76 -11 39 -2 75 -6 80
-8 6 -2 11 1 13 6 3 9 -32 18 -125 31 -29 4 -34 9 -39 45 -4 22 -11 42 -15 45
-5 3 -9 12 -9 20 0 12 15 13 79 10 84 -4 106 -11 95 -28 -7 -12 16 -88 27 -88
13 0 18 28 12 67 -11 69 -11 69 -127 72 l-106 2 0 -26z"/>
<path d="M8712 4969 c-12 -5 -25 -16 -29 -25 -8 -20 17 -37 34 -22 9 7 17 7
28 -2 12 -10 19 -10 27 -2 15 15 75 16 83 2 5 -8 12 -7 22 2 9 7 19 11 22 8 3
-3 7 5 9 18 3 19 -1 22 -35 23 -21 1 -60 3 -88 4 -27 2 -60 -1 -73 -6z"/>
<path d="M7686 5977 c3 -10 9 -15 12 -12 3 3 0 11 -7 18 -10 9 -11 8 -5 -6z"/>
<path d="M7736 5982 c-3 -6 -1 -14 5 -17 15 -10 25 3 12 16 -7 7 -13 7 -17 1z"/>
<path d="M7630 5920 c0 -5 5 -10 10 -10 6 0 10 5 10 10 0 6 -4 10 -10 10 -5 0
-10 -4 -10 -10z"/>
<path d="M7665 5900 c-3 -5 -1 -10 4 -10 6 0 11 5 11 10 0 6 -2 10 -4 10 -3 0
-8 -4 -11 -10z"/>
<path d="M7415 5880 c-3 -5 -1 -10 4 -10 6 0 11 5 11 10 0 6 -2 10 -4 10 -3 0
-8 -4 -11 -10z"/>
<path d="M7635 5870 c-4 -6 5 -24 19 -41 14 -17 26 -35 26 -40 0 -6 5 -7 10
-4 18 11 11 51 -13 73 -26 25 -33 27 -42 12z"/>
<path d="M7701 5741 c-11 -7 -5 -21 30 -69 24 -34 47 -61 50 -61 4 -1 9 8 12
18 3 12 -8 38 -30 68 -38 53 -42 56 -62 44z"/>
<path d="M6533 5668 c-11 -13 -26 -41 -33 -63 -7 -22 -21 -57 -32 -78 -20 -41
-18 -47 32 -80 46 -30 230 -94 298 -103 20 -3 48 -7 62 -10 14 -2 88 -6 165
-8 141 -4 144 7 5 19 -151 13 -243 33 -399 90 -116 41 -134 53 -126 78 4 12
14 50 23 84 l16 62 50 -4 c63 -5 123 -16 246 -45 87 -20 111 -22 281 -16 l186
7 14 -33 c7 -17 14 -60 15 -94 2 -99 23 -109 38 -19 10 58 -31 179 -62 183
-12 2 -22 -1 -22 -6 0 -5 -84 -8 -202 -7 -158 2 -214 6 -253 19 -53 17 -212
46 -256 46 -14 0 -35 -10 -46 -22z"/>
<path d="M7787 5574 c-11 -12 57 -135 73 -131 22 4 14 51 -16 98 -23 36 -42
48 -57 33z"/>
<path d="M6997 5493 c-8 -7 -10 -43 -3 -43 3 0 17 5 33 11 27 10 27 11 9 25
-22 16 -30 17 -39 7z"/>
<path d="M7107 5493 c-12 -11 -8 -22 13 -33 16 -9 22 -8 27 6 8 21 -24 44 -40
27z"/>
<path d="M7224 5463 c2 -16 6 -27 10 -25 3 1 9 2 14 2 38 1 35 50 -3 50 -20 0
-23 -5 -21 -27z"/>
<path d="M7275 5359 c-22 -10 -48 -19 -57 -19 -21 0 -23 -13 -4 -29 16 -13
105 16 114 37 9 25 -13 29 -53 11z"/>
<path d="M6876 5290 c11 -29 11 -97 1 -160 -19 -118 -19 -120 -3 -120 9 0 18
10 20 23 12 54 18 107 19 169 2 59 -1 70 -22 90 l-23 23 8 -25z"/>
<path d="M9220 5540 c-7 -4 -10 -12 -6 -18 9 -15 61 -7 61 9 0 15 -36 21 -55
9z"/>
<path d="M8347 5473 c-13 -12 -7 -43 8 -43 8 0 15 6 15 13 0 18 -15 38 -23 30z"/>
<path d="M8803 5532 c-8 -5 -9 -13 -3 -22 7 -12 10 -12 16 3 8 21 3 29 -13 19z"/>
<path d="M8845 5527 c-4 -10 -5 -21 -1 -24 10 -10 18 4 13 24 -4 17 -4 17 -12
0z"/>
<path d="M9000 5510 c0 -5 7 -10 15 -10 8 0 15 5 15 10 0 6 -7 10 -15 10 -8 0
-15 -4 -15 -10z"/>
<path d="M9040 5500 c0 -5 5 -10 10 -10 6 0 10 5 10 10 0 6 -4 10 -10 10 -5 0
-10 -4 -10 -10z"/>
<path d="M8960 5485 c0 -8 5 -15 10 -15 6 0 10 7 10 15 0 8 -4 15 -10 15 -5 0
-10 -7 -10 -15z"/>
<path d="M8780 5480 c0 -5 5 -10 11 -10 5 0 7 5 4 10 -3 6 -8 10 -11 10 -2 0
-4 -4 -4 -10z"/>
<path d="M8810 5480 c0 -5 9 -10 21 -10 11 0 17 5 14 10 -3 6 -13 10 -21 10
-8 0 -14 -4 -14 -10z"/>
<path d="M8860 5480 c0 -5 7 -10 15 -10 8 0 15 5 15 10 0 6 -7 10 -15 10 -8 0
-15 -4 -15 -10z"/>
<path d="M8915 5469 c-10 -15 1 -23 20 -15 9 3 13 10 10 16 -8 13 -22 13 -30
-1z"/>
<path d="M9002 5459 c2 -6 8 -10 13 -10 5 0 11 4 13 10 2 6 -4 11 -13 11 -9 0
-15 -5 -13 -11z"/>
<path d="M9090 5445 c0 -8 7 -15 15 -15 8 0 15 7 15 15 0 8 -7 15 -15 15 -8 0
-15 -7 -15 -15z"/>
<path d="M8822 5439 c2 -6 8 -10 13 -10 5 0 11 4 13 10 2 6 -4 11 -13 11 -9 0
-15 -5 -13 -11z"/>
<path d="M8962 5438 c6 -18 28 -21 28 -4 0 9 -7 16 -16 16 -9 0 -14 -5 -12
-12z"/>
<path d="M9057 5436 c-3 -8 -2 -18 3 -21 13 -8 24 15 12 27 -6 6 -11 4 -15 -6z"/>
<path d="M8782 5428 c6 -18 28 -21 28 -4 0 9 -7 16 -16 16 -9 0 -14 -5 -12
-12z"/>
<path d="M8865 5430 c-3 -5 1 -10 9 -10 9 0 16 5 16 10 0 6 -4 10 -9 10 -6 0
-13 -4 -16 -10z"/>
<path d="M8974 5399 c-2 -4 -1 -10 3 -12 12 -7 63 4 63 13 0 11 -59 10 -66 -1z"/>
<path d="M8940 5386 c0 -9 5 -16 10 -16 6 0 10 4 10 9 0 6 -4 13 -10 16 -5 3
-10 -1 -10 -9z"/>
<path d="M5018 5060 c15 -18 16 -47 0 -52 -8 -3 -9 -6 -1 -11 6 -4 18 8 27 28
9 19 22 35 28 35 6 0 8 3 5 6 -4 4 -13 1 -22 -6 -12 -10 -18 -10 -32 1 -15 11
-16 11 -5 -1z"/>
<path d="M5105 5050 c-3 -5 -1 -10 4 -10 6 0 11 5 11 10 0 6 -2 10 -4 10 -3 0
-8 -4 -11 -10z"/>
<path d="M5072 5021 c-8 -4 -10 -15 -6 -26 7 -17 8 -16 16 5 10 27 7 32 -10
21z"/>
<path d="M5176 4891 c-4 -5 -2 -12 3 -15 5 -4 12 -2 15 3 4 5 2 12 -3 15 -5 4
-12 2 -15 -3z"/>
<path d="M5165 4801 c-3 -5 -1 -12 4 -15 5 -3 11 1 15 9 6 16 -9 21 -19 6z"/>
<path d="M4856 4954 c-10 -25 -7 -56 4 -49 6 4 10 14 8 23 -1 10 1 23 5 30 5
6 4 12 -1 12 -6 0 -13 -7 -16 -16z"/>
<path d="M4695 4900 c-3 -5 -1 -10 4 -10 6 0 11 5 11 10 0 6 -2 10 -4 10 -3 0
-8 -4 -11 -10z"/>
<path d="M4880 4890 c-9 -6 -10 -10 -3 -10 6 0 15 5 18 10 8 12 4 12 -15 0z"/>
<path d="M4900 4864 c0 -8 5 -12 10 -9 6 4 8 11 5 16 -9 14 -15 11 -15 -7z"/>
<path d="M4955 4850 c-4 -6 -11 -8 -16 -5 -5 3 -6 -1 -3 -9 3 -9 14 -16 23
-16 13 0 13 2 2 9 -9 6 -10 11 -2 15 6 4 16 4 23 0 7 -4 8 -3 4 4 -9 15 -23
15 -31 2z"/>
<path d="M4730 4839 c0 -5 5 -7 10 -4 6 3 10 8 10 11 0 2 -4 4 -10 4 -5 0 -10
-5 -10 -11z"/>
<path d="M4868 4843 c-3 -4 1 -19 9 -33 l13 -25 -3 27 c-3 30 -12 44 -19 31z"/>
<path d="M4765 4830 c-2 -4 1 -7 8 -7 7 0 17 -2 24 -4 6 -2 12 1 12 6 1 11
-37 16 -44 5z"/>
<path d="M4930 4792 c6 -13 14 -21 18 -18 3 4 -2 14 -12 24 -18 16 -18 16 -6
-6z"/>
<path d="M4900 4790 c0 -5 5 -10 11 -10 5 0 7 5 4 10 -3 6 -8 10 -11 10 -2 0
-4 -4 -4 -10z"/>
<path d="M5002 4768 c-10 -13 -9 -16 7 -21 26 -6 72 3 66 14 -3 4 -17 4 -30
-1 -19 -7 -24 -6 -27 7 -3 14 -4 15 -16 1z"/>
<path d="M4839 4753 c-13 -16 -12 -17 4 -4 16 13 21 21 13 21 -2 0 -10 -8 -17
-17z"/>
<path d="M4930 4741 c0 -8 -7 -11 -17 -6 -15 5 -16 4 -5 -6 9 -10 15 -10 24
-1 6 6 9 15 5 19 -4 3 -7 1 -7 -6z"/>
<path d="M4949 4728 c-12 -23 -12 -23 10 -4 23 21 26 26 11 26 -5 0 -15 -10
-21 -22z"/>
<path d="M4880 4709 c0 -5 5 -7 10 -4 6 3 10 8 10 11 0 2 -4 4 -10 4 -5 0 -10
-5 -10 -11z"/>
<path d="M5025 4710 c4 -6 11 -8 16 -5 14 9 11 15 -7 15 -8 0 -12 -5 -9 -10z"/>
<path d="M3193 9398 c-36 -9 -66 -60 -56 -96 4 -19 13 -20 106 -18 162 5 153
3 135 24 -9 9 -15 29 -13 44 3 25 -1 28 -33 33 -21 3 -53 9 -72 14 -19 4 -50
4 -67 -1z"/>
<path d="M3110 9329 c0 -5 5 -7 10 -4 6 3 10 8 10 11 0 2 -4 4 -10 4 -5 0 -10
-5 -10 -11z"/>
<path d="M2137 9156 c-5 -14 39 -20 47 -7 3 5 -5 11 -19 13 -13 3 -26 0 -28
-6z"/>
<path d="M3995 8930 c-3 -5 3 -10 15 -10 12 0 18 5 15 10 -3 6 -10 10 -15 10
-5 0 -12 -4 -15 -10z"/>
<path d="M4054 8925 c8 -6 32 -9 53 -7 34 4 36 6 14 13 -13 5 -36 8 -53 7 -24
-2 -26 -4 -14 -13z"/>
<path d="M6120 8644 c0 -8 5 -12 10 -9 6 3 10 10 10 16 0 5 -4 9 -10 9 -5 0
-10 -7 -10 -16z"/>
<path d="M8939 1829 c24 -22 37 -20 28 6 -4 8 -16 15 -29 15 l-22 0 23 -21z"/>
<path d="M9000 1754 c0 -8 5 -12 10 -9 6 4 8 11 5 16 -9 14 -15 11 -15 -7z"/>
<path d="M7015 590 c-3 -5 -1 -10 4 -10 6 0 11 5 11 10 0 6 -2 10 -4 10 -3 0
-8 -4 -11 -10z"/>
<path d="M7019 555 c-1 -3 -2 -11 -3 -17 0 -7 -8 -13 -16 -14 -27 -1 -60 -15
-60 -26 0 -6 6 -6 15 2 8 7 15 8 15 3 0 -5 11 -15 25 -21 32 -15 35 -15 35 -2
0 6 -9 10 -20 10 -11 0 -20 5 -20 11 0 7 10 9 25 5 19 -5 23 -3 19 9 -4 8 -1
15 5 15 6 0 11 4 11 10 0 5 -7 6 -17 3 -11 -4 -14 -3 -9 5 4 7 5 12 2 12 -3 0
-7 -2 -7 -5z"/>
<path d="M6924 473 c3 -8 6 -17 6 -19 0 -2 7 -4 15 -4 8 0 15 7 15 16 0 9 5
12 12 8 6 -4 8 -3 5 3 -4 6 -18 11 -32 11 -19 0 -25 -5 -21 -15z"/>
<path d="M7050 462 c0 -6 -8 -13 -17 -15 -16 -4 -16 -5 -1 -6 18 -1 34 16 24
26 -3 4 -6 1 -6 -5z"/>
<path d="M7573 449 c-7 -7 -8 -21 -2 -43 9 -31 41 -306 38 -329 -5 -42 2 -77
17 -77 8 0 13 3 11 8 -3 4 -8 77 -11 162 -8 179 -14 236 -30 268 -9 16 -15 19
-23 11z"/>
<path d="M7630 428 c0 -12 7 -104 15 -203 8 -99 15 -190 15 -202 0 -14 6 -23
15 -23 19 0 19 7 -1 227 -9 98 -17 187 -18 197 -2 29 -26 32 -26 4z"/>
<path d="M7679 413 c-1 -4 -1 -10 -1 -13 0 -11 12 -202 18 -286 6 -85 16 -126
28 -113 3 3 0 97 -7 209 -8 145 -16 205 -24 208 -7 2 -14 0 -14 -5z"/>
<path d="M6977 399 c7 -7 15 -10 18 -7 3 3 -2 9 -12 12 -14 6 -15 5 -6 -5z"/>
<path d="M7723 333 c6 -74 10 -111 22 -213 3 -25 6 -62 6 -82 2 -43 18 -52 20
-10 1 15 1 29 1 32 0 3 -3 63 -6 135 -9 182 -14 215 -33 215 -14 0 -15 -11
-10 -77z"/>
<path d="M7880 286 c0 -29 26 -172 46 -250 8 -35 27 -33 20 1 -3 16 -8 46 -11
68 l-6 40 23 -39 c13 -21 28 -38 33 -38 12 2 12 2 1 69 -5 32 -4 59 3 71 15
29 -10 62 -33 43 -9 -7 -16 -22 -16 -32 0 -11 -4 -19 -10 -19 -5 0 -10 17 -10
38 0 52 -10 82 -26 82 -9 0 -14 -12 -14 -34z m57 -128 c-3 -7 -5 -2 -5 12 0
14 2 19 5 13 2 -7 2 -19 0 -25z"/>
</g>
</svg>
